<?xml version="1.0" encoding="utf-8"?>
<!-- Generator: Adobe Illustrator 26.0.1, SVG Export Plug-In . SVG Version: 6.00 Build 0)  -->
<svg version="1.1" id="Capa_1" xmlns="http://www.w3.org/2000/svg" xmlns:xlink="http://www.w3.org/1999/xlink" x="0px" y="0px"
	 viewBox="0 0 512 512" style="enable-background:new 0 0 512 512;" xml:space="preserve">
<style type="text/css">
	.st0{fill:#FF5408;}
	.st1{fill:#FF671D;}
	.st2{fill:#9D1D96;}
	.st3{fill:#1A428A;}
	.st4{fill:#F6A98F;}
	.st5{fill:#3C3C3B;}
	.st6{fill:#575756;}
	.st7{fill:#FCFAFA;}
	.st8{fill:#4569AF;}
	.st9{fill:#FBC19D;}
	.st10{fill:#ECECEC;}
	.st11{fill:url(#SVGID_1_);}
	.st12{fill:#FFFFFF;}
	.st13{fill:url(#SVGID_00000131357154489217245470000004139277623854745776_);}
	.st14{fill:url(#SVGID_00000090275853352432900760000012968678807973290157_);}
	.st15{fill:url(#SVGID_00000022540925498977072080000001471299211016029577_);}
	.st16{fill-rule:evenodd;clip-rule:evenodd;fill:#FF1753;}
	.st17{fill-rule:evenodd;clip-rule:evenodd;fill:#FFFFFF;}
	.st18{fill-rule:evenodd;clip-rule:evenodd;fill:#00C9D0;}
	.st19{fill:#B2B1B1;}
	.st20{fill:#B7B6B6;}
	.st21{fill:#B20098;}
	.st22{fill:#51504F;}
	.st23{fill:#4474BC;}
	.st24{opacity:0.33;fill:#FFFFFF;}
	.st25{fill:#E01717;}
	.st26{fill:#EDEBEB;}
	.st27{opacity:0.37;}
	.st28{fill:#F487E9;}
	.st29{fill:#E849E1;}
	.st30{fill:#CE1BBD;}
	.st31{fill:#A0C0E0;}
	.st32{fill:#5E8ABF;}
	.st33{fill:#3865A5;}
	.st34{fill:#F4CBBE;}
	.st35{fill:#F4B098;}
	.st36{fill:#F77F4F;}
	.st37{fill:url(#SVGID_00000001642311722072219340000013672539408192684423_);}
	.st38{fill:url(#SVGID_00000061462521643940868180000009865169582446288830_);}
	.st39{fill:url(#SVGID_00000052791105285949308560000017523763322004574602_);}
	.st40{fill:url(#SVGID_00000058547199930539422280000010901376634398376124_);}
	.st41{fill:url(#SVGID_00000124874551373168677200000005551577298782283702_);}
	.st42{fill:#FF5500;}
	.st43{fill:url(#SVGID_00000154399546116931155340000013621877887524844691_);}
	.st44{fill:url(#SVGID_00000154403864307735903710000011007163277918380961_);}
	.st45{fill:url(#SVGID_00000057134055443220497810000007130356158131479717_);}
	.st46{fill:url(#SVGID_00000030472084450542471020000004267110062303455652_);}
	.st47{fill:url(#SVGID_00000087398275035691105510000018233438592852770491_);}
	.st48{clip-path:url(#SVGID_00000088094382039301681090000016163187040885211042_);}
	.st49{fill-rule:evenodd;clip-rule:evenodd;fill:#5B1803;}
	.st50{fill:#E58A76;}
	.st51{fill:#F9AD95;}
	.st52{fill:#5B1803;}
	.st53{fill:#E2EBED;}
	.st54{fill:#F4BCB0;}
	.st55{fill-rule:evenodd;clip-rule:evenodd;fill:#F9C6B9;}
	.st56{fill:#232121;}
	.st57{fill-rule:evenodd;clip-rule:evenodd;fill:#B20098;}
	.st58{fill-rule:evenodd;clip-rule:evenodd;fill:url(#SVGID_00000038375056374579237550000012744720774222042291_);}
	.st59{fill-rule:evenodd;clip-rule:evenodd;fill:url(#SVGID_00000124125899074814372730000011663972496000065968_);}
	.st60{fill:#1D3751;}
	.st61{fill:#20346D;}
	.st62{fill:url(#SVGID_00000069358875770104869470000017431277644250510989_);}
	.st63{fill-rule:evenodd;clip-rule:evenodd;fill:url(#SVGID_00000171699718512548005590000006913338666215385222_);}
	.st64{fill-rule:evenodd;clip-rule:evenodd;fill:url(#SVGID_00000052788644559915704890000002345596273810159504_);}
	.st65{fill:#7A066F;}
	.st66{fill:url(#SVGID_00000064326869705260373840000006006301055780621500_);}
	.st67{fill:#11162A;}
	.st68{fill:#2A599E;}
	.st69{fill:#002133;}
	.st70{fill:#FFFEFF;}
	.st71{fill:#617478;}
	.st72{opacity:0.67;}
	.st73{opacity:0.15;}
	.st74{fill:#F0F1F2;}
	.st75{fill:#0086B5;}
	.st76{fill:#FFF69D;}
	.st77{fill:#484849;}
	.st78{fill:#EA7A00;}
	.st79{fill:#525251;}
	.st80{fill:#701E43;}
	.st81{fill:#FDF4F9;}
	.st82{fill:#F28E0F;}
	.st83{fill:#E25028;}
	.st84{fill:#EFEFEF;}
	.st85{fill:#FFB48C;}
	.st86{fill:#F19F77;}
	.st87{fill:#353534;}
	.st88{fill:#1F1F1F;}
	.st89{fill:#E9E9E9;}
	.st90{fill:#C9C9C9;}
	.st91{fill:#2C2C2B;}
	.st92{opacity:0.12;fill:#FFFFFF;}
	.st93{fill:#00A4DD;}
	.st94{fill:#DCDCDC;}
	.st95{fill:none;stroke:#FFFFFF;stroke-width:4;stroke-linecap:round;stroke-linejoin:round;}
	.st96{fill:none;stroke:#FFFFFF;stroke-width:4;stroke-linecap:round;stroke-linejoin:round;stroke-dasharray:0.2512,8.0389;}
	.st97{fill:#BBE2F9;}
	.st98{fill:#C6C6C6;}
	.st99{fill:#0080C6;}
	.st100{fill:#FFF2DB;}
	.st101{fill:#930386;}
	.st102{fill:#31241C;}
	.st103{fill:#EA9363;}
	.st104{opacity:0.15;fill:#AB5D2D;}
	.st105{fill:#1A191F;}
	.st106{fill:#1F0E03;}
	.st107{fill:#49687A;}
	.st108{fill:#F5CDB3;}
	.st109{clip-path:url(#SVGID_00000153691757047512217590000013957576780568218557_);}
	.st110{fill:#F86E3C;}
	.st111{opacity:0.6;fill:#FFD045;}
	.st112{clip-path:url(#SVGID_00000153691757047512217590000013957576780568218557_);fill:#B20098;}
	.st113{clip-path:url(#XMLID_00000097495555755044817300000007239207205586024628_);fill:#1A428A;}
	.st114{clip-path:url(#XMLID_00000149362122539596735730000010338570413378982030_);fill:#1A428A;}
	.st115{clip-path:url(#SVGID_00000114765686034684677010000017495033880463574949_);}
	.st116{fill:#D19E7B;}
	.st117{opacity:0.2;clip-path:url(#XMLID_00000100354575893436126400000009816609437570656177_);fill:#96A8B4;}
	.st118{fill:#496870;}
	.st119{opacity:0.4;fill:#FFFFFF;}
	.st120{fill:none;stroke:#1B424C;stroke-width:26;stroke-miterlimit:10;}
	.st121{fill:#FFBC99;}
	.st122{opacity:0.5;fill:#FFFFFF;}
	.st123{opacity:0.2;clip-path:url(#XMLID_00000164489752821149158500000002438376700016347276_);fill:#96A8B4;}
</style>
<g>
	<g>
		
			<radialGradient id="SVGID_1_" cx="187.1288" cy="347.6614" r="55.0678" gradientTransform="matrix(2.1951 0 0 2.1951 -135.5659 -475.7893)" gradientUnits="userSpaceOnUse">
			<stop  offset="0" style="stop-color:#000000"/>
			<stop  offset="1" style="stop-color:#FFFFFF"/>
		</radialGradient>
		<circle class="st11" cx="275.19" cy="287.35" r="120.88"/>
		<path class="st42" d="M256.84,90.5v-7.17c-41.94,0-80.7,13.56-112.2,36.49l4.22,5.8C179.18,103.55,216.48,90.5,256.84,90.5z"/>
		<path class="st42" d="M364.83,125.61l4.22-5.8c-31.5-22.93-70.26-36.49-112.2-36.49v7.17C297.21,90.5,334.51,103.55,364.83,125.61
			z"/>
		
			<ellipse transform="matrix(0.9877 -0.1566 0.1566 0.9877 -39.7806 43.6096)" class="st12" cx="256.84" cy="274.24" rx="117.76" ry="117.76"/>
		<path class="st3" d="M148.86,422.87c-31.01-22.57-54.68-54.59-66.77-91.85l-6.82,2.22c12.57,38.71,37.16,71.98,69.38,95.43
			c31.5,22.93,70.26,36.49,112.2,36.49v-7.17C216.48,457.99,179.18,444.94,148.86,422.87z"/>
		<path class="st21" d="M144.64,119.81c-32.22,23.45-56.81,56.72-69.38,95.43c-6.03,18.59-9.34,38.4-9.34,59
			c0,20.6,3.3,40.41,9.34,59l6.82-2.22c-5.81-17.89-8.99-36.96-8.99-56.78c0-19.82,3.18-38.9,8.99-56.78
			c12.1-37.26,35.76-69.28,66.77-91.85L144.64,119.81z"/>
		<path class="st21" d="M431.6,331.02c-12.1,37.26-35.76,69.28-66.77,91.85c-30.32,22.07-67.62,35.12-107.99,35.12v7.17
			c41.94,0,80.7-13.56,112.2-36.49c32.22-23.45,56.81-56.72,69.38-95.43L431.6,331.02z"/>
		<path class="st3" d="M438.43,215.24c-12.57-38.71-37.16-71.98-69.38-95.43l-4.22,5.8c31.01,22.57,54.68,54.59,66.77,91.85
			c5.81,17.89,8.99,36.96,8.99,56.78c0,19.82-3.18,38.9-8.99,56.78l6.82,2.22c6.03-18.59,9.34-38.4,9.34-59
			C447.76,253.64,444.46,233.83,438.43,215.24z"/>
		<path class="st21" d="M198.54,193.99c-16.74,12.19-29.52,29.48-36.05,49.59c-3.14,9.66-4.85,19.96-4.85,30.66s1.72,21,4.85,30.66
			l5.46-1.77c-2.95-9.1-4.57-18.8-4.57-28.89c0-10.08,1.62-19.79,4.57-28.89c6.15-18.95,18.19-35.24,33.97-46.72L198.54,193.99z"/>
		<path class="st3" d="M201.91,349.85c-15.78-11.48-27.81-27.77-33.97-46.72l-5.46,1.77c6.53,20.12,19.31,37.41,36.05,49.59
			c16.37,11.91,36.51,18.96,58.31,18.96v-5.74C236.31,367.72,217.33,361.08,201.91,349.85z"/>
		<path class="st42" d="M256.84,175.03c-21.8,0-41.94,7.05-58.31,18.96l3.37,4.64c15.42-11.22,34.4-17.86,54.93-17.86
			c20.54,0,39.51,6.64,54.93,17.86l3.37-4.64C298.78,182.07,278.64,175.03,256.84,175.03z"/>
		<path class="st21" d="M345.75,303.13c-6.15,18.95-18.19,35.24-33.97,46.72c-15.42,11.22-34.4,17.86-54.93,17.86v5.74
			c21.8,0,41.94-7.05,58.31-18.96c16.74-12.19,29.52-29.48,36.05-49.59L345.75,303.13z"/>
		<path class="st3" d="M351.21,243.58c-6.53-20.12-19.31-37.41-36.05-49.59l-3.37,4.64c15.78,11.48,27.81,27.77,33.97,46.72
			c2.95,9.1,4.57,18.8,4.57,28.89c0,10.08-1.62,19.79-4.57,28.89l5.46,1.77c3.14-9.66,4.85-19.96,4.85-30.66
			S354.34,253.24,351.21,243.58z"/>
		
			<radialGradient id="SVGID_00000151502443506635579310000015777662155126919582_" cx="187.2843" cy="261.3276" r="31.1446" gradientTransform="matrix(2.1951 0 0 2.1951 -135.5659 -475.7893)" gradientUnits="userSpaceOnUse">
			<stop  offset="0" style="stop-color:#000000"/>
			<stop  offset="1" style="stop-color:#FFFFFF"/>
		</radialGradient>
		<circle style="fill:url(#SVGID_00000151502443506635579310000015777662155126919582_);" cx="275.53" cy="97.84" r="68.36"/>
		<g>
			<g>
				<g>
					<g>
						<path class="st42" d="M255.75,12.02L255.75,12.02L255.75,12.02c-38.85,0.13-70.24,31.73-70.11,70.58l0.13,37.32
							c0.03,7.87,4.67,14.98,11.85,18.18l58.64,26.09l58.46-26.49c7.17-3.25,11.76-10.4,11.73-18.26l-0.13-37.32
							C326.2,43.28,294.6,11.89,255.75,12.02z"/>
					</g>
				</g>
				<circle class="st42" cx="257.26" cy="177.68" r="9.61"/>
			</g>
		</g>
		
			<radialGradient id="SVGID_00000125604517686415971430000017609956359025221554_" cx="258.1377" cy="323.8218" r="31.1446" gradientTransform="matrix(2.1951 0 0 2.1951 -135.5659 -475.7893)" gradientUnits="userSpaceOnUse">
			<stop  offset="0" style="stop-color:#000000"/>
			<stop  offset="1" style="stop-color:#FFFFFF"/>
		</radialGradient>
		<circle style="fill:url(#SVGID_00000125604517686415971430000017609956359025221554_);" cx="431.06" cy="235.02" r="68.36"/>
		<g>
			<g>
				<g>
					<g>
						<path class="st3" d="M504.46,192.35L504.46,192.35L504.46,192.35c-12.13-36.91-51.89-57-88.79-44.87l-35.45,11.65
							c-7.47,2.46-12.81,9.07-13.63,16.89l-6.69,63.83l43.26,47.42c5.3,5.81,13.52,7.97,20.99,5.51l35.45-11.65
							C496.51,269.02,516.59,229.26,504.46,192.35z"/>
					</g>
				</g>
				<path class="st3" d="M350.36,254.12c5.05-1.64,7.81-7.06,6.17-12.11c-1.64-5.05-7.06-7.81-12.11-6.17
					c-5.05,1.64-7.81,7.06-6.17,12.11C339.89,253,345.31,255.76,350.36,254.12z"/>
			</g>
		</g>
		
			<radialGradient id="SVGID_00000134937833959201212660000013627694884892961680_" cx="238.235" cy="410.9953" r="31.1446" gradientTransform="matrix(2.1951 0 0 2.1951 -135.5659 -475.7893)" gradientUnits="userSpaceOnUse">
			<stop  offset="0" style="stop-color:#000000"/>
			<stop  offset="1" style="stop-color:#FFFFFF"/>
		</radialGradient>
		<circle style="fill:url(#SVGID_00000134937833959201212660000013627694884892961680_);" cx="387.37" cy="426.37" r="68.36"/>
		<g>
			<g>
				<g>
					<g>
						<path class="st21" d="M409.82,484.62L409.82,484.62L409.82,484.62c31.35-22.94,38.17-66.96,15.23-98.31l-22.04-30.12
							c-4.65-6.35-12.58-9.38-20.28-7.74l-62.78,13.36l-31.73,55.79c-3.89,6.84-3.4,15.32,1.24,21.67l22.04,30.12
							C334.45,500.74,378.47,507.56,409.82,484.62z"/>
					</g>
				</g>
				<path class="st21" d="M303.45,357.14c3.12,4.29,9.13,5.25,13.43,2.13c4.29-3.12,5.25-9.13,2.13-13.43
					c-3.12-4.29-9.13-5.25-13.42-2.13C301.28,346.84,300.33,352.85,303.45,357.14z"/>
			</g>
		</g>
		
			<radialGradient id="SVGID_00000070800513061895572710000003604805255217487234_" cx="140.7122" cy="413.3837" r="31.1447" gradientTransform="matrix(2.1951 0 0 2.1951 -135.5659 -475.7893)" gradientUnits="userSpaceOnUse">
			<stop  offset="0" style="stop-color:#000000"/>
			<stop  offset="1" style="stop-color:#FFFFFF"/>
		</radialGradient>
		<circle style="fill:url(#SVGID_00000070800513061895572710000003604805255217487234_);" cx="173.31" cy="431.61" r="68.36"/>
		<g>
			<g>
				<g>
					<g>
						<path class="st3" d="M102.61,484.92L102.61,484.92L102.61,484.92c31.51,22.73,75.48,15.61,98.21-15.9l21.83-30.27
							c4.6-6.38,5.03-14.87,1.1-21.68l-32.11-55.58l-62.87-12.94c-7.71-1.59-15.62,1.5-20.23,7.88l-21.83,30.27
							C63.98,418.22,71.1,462.19,102.61,484.92z"/>
					</g>
				</g>
				<path class="st3" d="M190.98,344.37c-3.12,4.29-2.17,10.31,2.13,13.43c4.29,3.12,10.3,2.17,13.43-2.13
					c3.12-4.29,2.17-10.3-2.13-13.43C200.11,339.12,194.1,340.07,190.98,344.37z"/>
			</g>
		</g>
		
			<radialGradient id="SVGID_00000126311265747541770570000012232927285068719551_" cx="98.9166" cy="326.6082" r="31.1447" gradientTransform="matrix(2.1951 0 0 2.1951 -135.5659 -475.7893)" gradientUnits="userSpaceOnUse">
			<stop  offset="0" style="stop-color:#000000"/>
			<stop  offset="1" style="stop-color:#FFFFFF"/>
		</radialGradient>
		<circle style="fill:url(#SVGID_00000126311265747541770570000012232927285068719551_);" cx="81.56" cy="241.14" r="68.36"/>
		<g>
			<g>
				<g>
					<g>
						<path class="st21" d="M7.39,192.84L7.39,192.84L7.39,192.84c-11.88,36.99,8.47,76.61,45.47,88.49l35.53,11.41
							c7.49,2.41,15.69,0.19,20.96-5.66l42.94-47.71l-7.12-63.79c-0.87-7.82-6.25-14.4-13.74-16.8l-35.53-11.41
							C58.89,135.5,19.27,155.85,7.39,192.84z"/>
					</g>
				</g>
				<path class="st21" d="M168.37,233.45c-5.05-1.64-10.47,1.12-12.11,6.17s1.12,10.47,6.17,12.11c5.05,1.64,10.47-1.12,12.11-6.17
					C176.18,240.51,173.42,235.09,168.37,233.45z"/>
			</g>
		</g>
	</g>
	<g>
		<g>
			<g>
				<defs>
					<circle id="SVGID_00000075854180614393563080000004232562863310647702_" cx="256.64" cy="271.23" r="78.2"/>
				</defs>
				<clipPath id="SVGID_00000043444656980819611770000014897565311605928066_">
					<use xlink:href="#SVGID_00000075854180614393563080000004232562863310647702_"  style="overflow:visible;"/>
				</clipPath>
				<g style="clip-path:url(#SVGID_00000043444656980819611770000014897565311605928066_);">
					<path class="st49" d="M263.82,201.91c-2.59-0.33-4.95-0.38-7.17-0.28c-2.22-0.1-4.58-0.06-7.17,0.28
						c-20.69,2.67-34.9,16.37-23.47,46.44c6.75,17.77,20.68,19.97,30.64,18.94c9.96,1.03,23.89-1.18,30.64-18.94
						C298.71,218.28,284.51,204.57,263.82,201.91z"/>
					<g>
						<g>
							<g>
								<path class="st50" d="M196.58,418.74c0,0,2.26,7.14,1.52,11.21c-0.74,4.06-8.05,5.33-8.05,5.33s-1.01-7-1.17-7.89
									c-0.16-0.89-0.26-2.02,1.06-3.23C191.24,422.95,196.58,418.74,196.58,418.74z"/>
								<path class="st51" d="M214.24,354.36c0,0-16.3,42.43-18.82,48.82s2.6,13.33,1.08,22.16c-1.52,8.82-5.94,15.97-8.76,16.03
									c-2.82,0.05-1.96-3.47-1.96-3.47s-0.98,2.51-3.8,1.91c-2.82-0.6-1.62-4.67-1.62-4.67s-1.7,1.17-3.39,0.21
									c-1.69-0.96-0.7-4.01-0.7-4.01s-1.11,0.52-2.06-0.57c-0.95-1.09-1.02-3.36,1.08-6.33c2.1-2.97,1.09-8.25,2-13.66
									c0.34-2.01,8.25-48.75,11.89-65.41c2.04-9.36,10.6-12.51,18.11-10.45C210.7,335.83,218.5,343.26,214.24,354.36z"/>
								<path class="st50" d="M194.83,365.98l-7.58-0.41l-2.52,2.73v0c0,0,7.29,7.77,19.07,13.21c1.84-4.77,3.72-9.65,5.37-13.94
									C203.95,367.1,194.83,365.98,194.83,365.98z"/>
								<path class="st50" d="M215.36,349.74c-0.31-0.57-0.6-0.97-0.86-1.14c-2.49-1.66-10.63-5.98-12.79-5.48
									c-2.16,0.5-14.51,11.9-14.51,11.9l0,0c0,0,7.98,12.24,20.77,15.61c3.46-8.99,6.26-16.28,6.26-16.28
									C214.86,352.73,215.2,351.2,215.36,349.74z"/>
								<path class="st50" d="M181.68,439.7c-0.08-0.05-1.32-0.94-0.17-4.46c1.19-3.64,2.56-6.62,2.33-6.83
									c-0.15-0.14-3.5,6.7-3.5,6.7S179.24,438.89,181.68,439.7z"/>
								<path class="st50" d="M176.95,435.33c0,0-0.95-1.41,0.47-4.65c1.42-3.25,1.52-2.72,1.26-2.75
									c-0.57-0.08-2.42,3.39-2.42,3.39S175.26,434.37,176.95,435.33z"/>
								<path class="st50" d="M187.78,436.2c1.88-3.99,2.48-6.05,2.69-6.9c0.21-0.85-3.7,6.41-4.69,8.59c0,0-0.68,2.8,1.18,3.36
									C186.95,441.25,185.9,440.19,187.78,436.2z"/>
							</g>
							<g>
								<g>
									<path class="st52" d="M298.59,247.65c0-31.42-20.56-41.48-20.56-41.48l-21.39-0.7l-21.39,0.7c0,0-20.56,10.06-20.56,41.48
										c0,47.88-32.19,40.91-26.76,69.61c5.43,28.7,68.71,38.11,68.71,38.11s63.28-9.42,68.71-38.11
										C330.78,288.57,298.59,295.54,298.59,247.65z"/>
									<path class="st21" d="M222.21,296.72c-19.85,3.18-33.68,36.45-42.49,66.67c-1.43,4.91,22.1,11.67,34.67,10.5
										C214.4,373.9,234.9,294.69,222.21,296.72z"/>
									<path class="st12" d="M181.64,357.06c-0.66,2.12-1.3,4.23-1.91,6.33c-1.43,4.91,22.1,11.67,34.67,10.5
										c0,0,0.76-2.92,1.89-7.62C204.66,367.21,184.44,361.77,181.64,357.06z"/>
									<path class="st53" d="M214.45,373.69c0.01-0.05,0.02-0.1,0.04-0.16c0.02-0.07,0.04-0.15,0.06-0.24
										c0.01-0.06,0.03-0.12,0.05-0.18c0.01-0.05,0.03-0.11,0.04-0.17c0.05-0.18,0.09-0.37,0.15-0.6c0-0.02,0.01-0.03,0.01-0.05
										c0.03-0.13,0.07-0.26,0.1-0.41c0.02-0.1,0.05-0.2,0.08-0.3c0.05-0.18,0.09-0.37,0.14-0.57c0.03-0.13,0.07-0.27,0.1-0.41
										c0.03-0.13,0.07-0.26,0.1-0.4c0.05-0.2,0.1-0.41,0.15-0.62c0.04-0.16,0.08-0.32,0.12-0.48c0.05-0.21,0.1-0.42,0.16-0.64
										c0.03-0.12,0.06-0.23,0.09-0.35c0.08-0.33,0.16-0.67,0.25-1.02c0.02-0.08,0.04-0.15,0.06-0.23
										c0.04-0.18,0.09-0.38,0.14-0.57c-4.31,0.35-9.79-0.19-15.14-1.23l-2.54,7.56c1.36,0.28,2.73,0.52,4.1,0.72
										c0.06,0.01,0.13,0.02,0.19,0.03c1.32,0.19,2.63,0.35,3.91,0.46c0.11,0.01,0.21,0.02,0.32,0.03
										c0.54,0.04,1.07,0.08,1.59,0.11c0.1,0.01,0.2,0.01,0.3,0.02c0.59,0.03,1.17,0.05,1.74,0.05c0.1,0,0.2,0,0.3,0
										c0.46,0,0.92,0,1.36-0.02c0.14,0,0.29-0.01,0.43-0.01c0.53-0.02,1.05-0.05,1.54-0.1c0,0,0.01-0.04,0.03-0.13
										C214.43,373.75,214.44,373.72,214.45,373.69z"/>
									<path class="st51" d="M299.05,354.36c0,0,16.3,42.43,18.82,48.82c2.52,6.39-2.6,13.33-1.08,22.16
										c1.52,8.82,5.94,15.97,8.76,16.03c2.82,0.05,1.96-3.47,1.96-3.47s0.98,2.51,3.8,1.91s1.62-4.67,1.62-4.67
										s1.7,1.17,3.39,0.21c1.69-0.96,0.7-4.01,0.7-4.01s1.11,0.52,2.06-0.57c0.95-1.09,1.02-3.36-1.08-6.33
										c-2.1-2.97-1.09-8.25-2-13.66c-0.34-2.01-8.25-48.75-11.89-65.41c-2.04-9.36-10.6-12.51-18.11-10.45
										C302.59,335.83,294.78,343.26,299.05,354.36z"/>
									<path class="st50" d="M318.45,365.98l7.58-0.41l2.52,2.73v0c0,0-7.29,7.77-19.07,13.21c-1.84-4.77-3.72-9.65-5.37-13.94
										C309.33,367.1,318.45,365.98,318.45,365.98z"/>
									<path class="st21" d="M291.07,296.72c19.85,3.18,33.68,36.45,42.49,66.67c1.43,4.91-22.1,11.67-34.67,10.5
										C298.89,373.9,278.39,294.69,291.07,296.72z"/>
									<path class="st12" d="M331.65,357.06c0.66,2.12,1.3,4.23,1.91,6.33c1.43,4.91-22.1,11.67-34.67,10.5
										c0,0-0.76-2.92-1.89-7.62C308.62,367.21,328.85,361.77,331.65,357.06z"/>
									<path class="st53" d="M298.84,373.69c-0.01-0.05-0.02-0.1-0.04-0.16c-0.02-0.07-0.04-0.15-0.06-0.24
										c-0.01-0.06-0.03-0.12-0.05-0.18c-0.01-0.05-0.03-0.11-0.04-0.17c-0.05-0.18-0.09-0.37-0.15-0.6
										c0-0.02-0.01-0.03-0.01-0.05c-0.03-0.13-0.07-0.26-0.1-0.41c-0.02-0.1-0.05-0.2-0.08-0.3c-0.05-0.18-0.09-0.37-0.14-0.57
										c-0.03-0.13-0.07-0.27-0.1-0.41c-0.03-0.13-0.07-0.26-0.1-0.4c-0.05-0.2-0.1-0.41-0.15-0.62
										c-0.04-0.16-0.08-0.32-0.12-0.48c-0.05-0.21-0.1-0.42-0.16-0.64c-0.03-0.12-0.06-0.23-0.09-0.35
										c-0.08-0.33-0.16-0.67-0.25-1.02c-0.02-0.08-0.04-0.15-0.06-0.23c-0.04-0.18-0.09-0.38-0.14-0.57
										c4.31,0.35,9.79-0.19,15.14-1.23l2.54,7.56c-1.36,0.28-2.73,0.52-4.1,0.72c-0.06,0.01-0.13,0.02-0.19,0.03
										c-1.32,0.19-2.63,0.35-3.91,0.46c-0.11,0.01-0.21,0.02-0.32,0.03c-0.54,0.04-1.07,0.08-1.59,0.11
										c-0.1,0.01-0.2,0.01-0.3,0.02c-0.59,0.03-1.17,0.05-1.74,0.05c-0.1,0-0.2,0-0.3,0c-0.46,0-0.92,0-1.36-0.02
										c-0.14,0-0.29-0.01-0.43-0.01c-0.53-0.02-1.05-0.05-1.54-0.1c0,0-0.01-0.04-0.03-0.13
										C298.85,373.75,298.84,373.72,298.84,373.69z"/>
									<g>
										<path class="st54" d="M268.42,282.29l-11.78,1.99l-11.69-2.32l-1.19,11.22c0,0,1.56,6.73,12.88,6.73
											s12.88-6.73,12.88-6.73L268.42,282.29z"/>
										<g>
											<path class="st55" d="M283.37,243.95c0-12.58-6.55-28.69-26.73-28.69s-26.73,16.11-26.73,28.69
												c0,0,0.28,43.67,26.73,43.67v0l0,0l0,0v0C283.09,287.62,283.37,243.95,283.37,243.95z"/>
											<g>
												<g>
													<g>
														<g>
															<path class="st56" d="M240.38,246.56c-0.54,0-1.05-0.33-1.25-0.87c-0.25-0.69,0.1-1.45,0.79-1.71
																c5.42-2,9.26-0.01,9.42,0.07c0.65,0.34,0.89,1.15,0.55,1.8c-0.34,0.65-1.14,0.89-1.79,0.55
																c-0.15-0.08-3.04-1.49-7.27,0.07C240.68,246.53,240.53,246.56,240.38,246.56z"/>
														</g>
													</g>
												</g>
												<g>
													<path class="st56" d="M272.91,246.56c-0.15,0-0.31-0.03-0.46-0.08c-4.31-1.59-7.23-0.09-7.26-0.07
														c-0.65,0.34-1.45,0.1-1.8-0.55s-0.1-1.45,0.55-1.8c0.16-0.09,4.01-2.07,9.42-0.07c0.69,0.25,1.04,1.02,0.79,1.71
														C273.96,246.23,273.45,246.56,272.91,246.56z"/>
												</g>
											</g>
										</g>
										<path class="st57" d="M294.99,301.14c-0.15-2.19-1.76-4-3.92-4.42c-6.54-1.26-12.31-2.22-15.35-3.31
											c-3.59-1.29-5.32-1.9-6.2-0.91c0,0-4.69,6.73-12.88,6.73c-8.19,0-12.88-6.73-12.88-6.73c-0.88-0.99-2.61-0.38-6.2,0.91
											c-3.04,1.09-8.81,2.06-15.35,3.31c-2.16,0.41-3.77,2.22-3.92,4.42c-0.73,11.05-14.15,125.79-13.15,127.66
											c0,0,22.76,5.69,51.49,5.69s51.49-5.69,51.49-5.69C309.13,426.93,295.72,312.19,294.99,301.14z"/>
										<g>
											
												<linearGradient id="SVGID_00000051375665021085306350000007148019328820162739_" gradientUnits="userSpaceOnUse" x1="248.1761" y1="314.3328" x2="247.7804" y2="336.6916">
												<stop  offset="0" style="stop-color:#C7CBD1"/>
												<stop  offset="1" style="stop-color:#FFFFFF"/>
											</linearGradient>
											
												<polygon style="fill-rule:evenodd;clip-rule:evenodd;fill:url(#SVGID_00000051375665021085306350000007148019328820162739_);" points="
												239.66,292.67 256.64,338.79 256.64,299.23 											"/>
											
												<linearGradient id="SVGID_00000018945127401671474860000009717514033364229509_" gradientUnits="userSpaceOnUse" x1="264.8079" y1="314.381" x2="264.4056" y2="337.1088">
												<stop  offset="0" style="stop-color:#C7CBD1"/>
												<stop  offset="1" style="stop-color:#FFFFFF"/>
											</linearGradient>
											
												<polygon style="fill-rule:evenodd;clip-rule:evenodd;fill:url(#SVGID_00000018945127401671474860000009717514033364229509_);" points="
												256.64,299.23 256.64,338.79 273.63,292.67 											"/>
										</g>
										<path class="st60" d="M207.39,402.69c-1.55,14.92-2.54,25.55-2.24,26.11c0,0,22.76,5.69,51.49,5.69s51.49-5.69,51.49-5.69
											c0.59-1.09-3.79-41.04-7.65-76.1C289.05,401.66,207.39,402.69,207.39,402.69z"/>
									</g>
								</g>
								<g>
									<path class="st61" d="M239.73,233.99L239.73,233.99c-0.01,0-0.02,0-0.04,0.01C239.71,234,239.72,234,239.73,233.99z"/>
								</g>
							</g>
							<g>
								<path class="st50" d="M186.76,351.39c-0.03,0.1-0.06,0.2-0.08,0.3C186.72,351.58,186.75,351.48,186.76,351.39z"/>
							</g>
							<g>
								<path class="st50" d="M223.57,266.95c0.03-0.06,0.06-0.11,0.1-0.17C223.6,266.88,223.57,266.95,223.57,266.95z"/>
							</g>
						</g>
					</g>
					<ellipse class="st56" cx="244.7" cy="252" rx="2.79" ry="4.15"/>
					<ellipse class="st56" cx="268.59" cy="252" rx="2.79" ry="4.15"/>
					
						<linearGradient id="SVGID_00000140726265130683154160000012183913440274995841_" gradientUnits="userSpaceOnUse" x1="256.1281" y1="252.1658" x2="256.1281" y2="266.2875">
						<stop  offset="0" style="stop-color:#E26C59"/>
						<stop  offset="1" style="stop-color:#F4A190"/>
					</linearGradient>
					<path style="fill:url(#SVGID_00000140726265130683154160000012183913440274995841_);" d="M256.64,252.28
						c0,0-0.68,5.92-3.11,9.25c-2.43,3.33,0.63,4.89,6.04,3.6c0,0-4.63-0.87-3.73-3.22C256.74,259.58,257.68,255.35,256.64,252.28z"
						/>
					
						<linearGradient id="SVGID_00000097497223626798937110000002794060550621306812_" gradientUnits="userSpaceOnUse" x1="248.2056" y1="289.8873" x2="248.0117" y2="311.6038">
						<stop  offset="0" style="stop-color:#C7CBD1"/>
						<stop  offset="1" style="stop-color:#FFFFFF"/>
					</linearGradient>
					
						<polygon style="fill-rule:evenodd;clip-rule:evenodd;fill:url(#SVGID_00000097497223626798937110000002794060550621306812_);" points="
						244.3,288.12 239.66,292.67 248.8,308.67 256.64,299.23 					"/>
					
						<linearGradient id="SVGID_00000037680998634888214270000005240436777230395577_" gradientUnits="userSpaceOnUse" x1="265.1869" y1="290.0389" x2="264.993" y2="311.7554">
						<stop  offset="0" style="stop-color:#C7CBD1"/>
						<stop  offset="1" style="stop-color:#FFFFFF"/>
					</linearGradient>
					
						<polygon style="fill-rule:evenodd;clip-rule:evenodd;fill:url(#SVGID_00000037680998634888214270000005240436777230395577_);" points="
						268.99,288.12 273.63,292.67 264.48,308.67 256.64,299.23 					"/>
					<polygon class="st65" points="239.66,292.67 233.19,304.05 238.96,309.72 234.81,312.24 256.64,338.79 					"/>
					<polygon class="st65" points="273.63,292.67 280.09,304.05 274.33,309.72 278.47,312.24 256.64,338.79 					"/>
				</g>
			</g>
		</g>
		<path class="st49" d="M273.64,221.04c0,0-27.15,4.7-43.47,27.6c0,0-2.15-15.14-2.15-15.62s2.71-10.18,6.69-12.02
			c3.97-1.84,10.18-5.73,10.18-5.73l23.95-9.78L273.64,221.04z"/>
		<path class="st49" d="M273.64,221.04c0,0-2.82,16.58,9.48,27.6c0,0,2.15-15.14,2.15-15.62s-2.71-10.18-6.69-12.02
			c-3.97-1.84,3.79-6.64,3.79-6.64l-9.45-4.36L273.64,221.04z"/>
		
			<linearGradient id="SVGID_00000136405603739577394290000015601530929363552167_" gradientUnits="userSpaceOnUse" x1="256.6897" y1="270.1155" x2="256.6897" y2="275.7161">
			<stop  offset="0" style="stop-color:#81043A"/>
			<stop  offset="1" style="stop-color:#F51730"/>
		</linearGradient>
		<path style="fill:url(#SVGID_00000136405603739577394290000015601530929363552167_);" d="M266.26,270.89
			c-0.94,1.57-2.45,2.76-4.12,3.58c-1.68,0.83-3.58,1.21-5.45,1.24c-1.88-0.03-3.78-0.41-5.46-1.24c-1.67-0.81-3.18-2.01-4.12-3.58
			c3.15,1.72,6.33,2.54,9.57,2.55C259.94,273.43,263.12,272.62,266.26,270.89z"/>
	</g>
	<g>
		<path class="st12" d="M167.23,393.73c-4.97-4.6-12.38-7.7-20.21-7.86l-0.19,28.87L167.23,393.73z"/>
		<path class="st12" d="M141.59,385.68c-20.44,0-35.54,16.57-35.54,37.01s16.57,37.01,37.01,37.01c14.33,0,27.67-8.46,32.57-19.38
			l-33.3-17.63v-37C142.08,385.69,141.84,385.68,141.59,385.68z"/>
		<g>
			<polygon class="st12" points="160.67,407 155.31,424.08 158.4,425.73 166,401.52 			"/>
			<polygon class="st12" points="153.76,414.1 151.3,421.93 154.39,423.58 159.09,408.62 			"/>
			<path class="st12" d="M175.71,403.82l-8.38,26.7l3.09,1.66l7.5-23.89C177.29,406.74,176.55,405.24,175.71,403.82z"/>
			<path class="st12" d="M178.51,409.83l-7.17,22.84l3.09,1.66l5.66-18.03C179.78,414.07,179.25,411.91,178.51,409.83z"/>
			<path class="st12" d="M180.41,420.59c0-0.58-0.02-1.16-0.05-1.74l-5.01,15.95l1.82,0.97C179.49,431.29,180.41,426,180.41,420.59z
				"/>
			<path class="st12" d="M170.45,396.95l-2.87,2.95l-8.26,26.33l3.09,1.66l9.29-29.59C171.29,397.83,170.87,397.38,170.45,396.95z"
				/>
			<polygon class="st12" points="147.91,420.11 150.38,421.44 152.18,415.72 			"/>
			<path class="st12" d="M172.48,399.19l-9.16,29.18l3.09,1.66l8.59-27.37C174.23,401.45,173.39,400.28,172.48,399.19z"/>
		</g>
	</g>
	<path class="st12" d="M96.01,241.19c1.21,0,2.19-0.98,2.19-2.19v-23.45h5.76h0.01c2.1,0,3.81-1.71,3.81-3.81
		c0-1.2-0.56-2.28-1.43-2.97l-7.45-6.46v-10.75c0-1.26-1.02-2.28-2.28-2.28h-4.71c-1.26,0-2.28,1.02-2.28,2.28v2.71l-13.25-11.5
		c-1.43-1.24-3.56-1.24-4.99,0l-30.08,26.11c-1.2,1.04-1.63,2.72-1.07,4.21c0.56,1.49,1.98,2.47,3.57,2.47h5.77v23.45
		c0,1.21,0.98,2.19,2.19,2.19h12.96v-17.05c0-2.41,1.95-4.36,4.36-4.36h9.59c2.41,0,4.36,1.95,4.36,4.36v17.05H96.01z"/>
	<g>
		<path class="st12" d="M391.55,404.86c-3.93,2.25-6.74,3.62-8.98,3.26c2.41-1.03,6.62-3.25,8.83-8.43
			c0.17-0.39-1.03-0.95-1.42-1.11c-0.39-0.17-0.85,0.01-1.01,0.41c-1.71,4.01-4.03,6.1-5.97,7.21c2.27-4.16,3.63-9.95,3.63-14.28
			h-17.31h-18.03c0,5.57,2.25,13.6,5.82,17.41h23.71c0-0.01,0.01-0.01,0.01-0.02c0.95,0.28,2.14,0.51,3.54,0.51
			c2.28,0,5.11-0.59,8.36-2.44c0.37-0.21,0.1-1.85-0.12-2.22C392.4,404.78,391.92,404.65,391.55,404.86z"/>
		<path class="st12" d="M381.08,411.06h-0.16h-23.93h-0.17c-12.16,4.83-20.76,16.69-20.76,30.57c0,18.16,14.73,19.73,32.89,19.73
			c18.16,0,32.89-1.57,32.89-19.73C401.84,427.75,393.24,415.89,381.08,411.06z M377.96,440.87c-0.38,4-3.77,6.41-6.77,6.66
			l0.02,4.21h-4.06v-3.87c0,0-4.61-0.24-7.24-1.86l1.53-4.75c0,0,1.83,0.99,3.96,1.43c2.12,0.44,5.81,0.32,6.26-1.68
			c0.44-1.94-0.82-2.7-3.45-3.45c-2.62-0.75-7.2-2.89-7.62-6.43c-0.45-3.85,1.29-6.83,6.5-7.93v-4.06h4.06v3.56
			c0,0,4.17,0.32,5.73,1.32l-0.98,4.36c0,0-3.93-1.31-6.62-1.12c-2.69,0.19-2.87,2.91-0.96,4.13c2.25,1.44,5.58,2.49,6.64,3.05
			C376.02,435,378.33,436.88,377.96,440.87z"/>
	</g>
	<g>
		<rect x="442.87" y="202.45" class="st12" width="17.16" height="39.31"/>
		<rect x="422.75" y="213.68" class="st12" width="17.16" height="28.08"/>
		<rect x="402.62" y="223.04" class="st12" width="17.16" height="18.72"/>
		<path class="st12" d="M440.01,178.84l5.51,2.69c-11.86,28.11-42.45,25.67-42.45,25.67c29.72,6.47,41.39-9.01,48.77-21.55l5.4,3.24
			l-2.74-16.2L440.01,178.84z"/>
		<rect x="399.19" y="244.41" class="st12" width="64.58" height="3.12"/>
	</g>
	<g>
		<path class="st12" d="M241.6,78.31l2.18-2.41c1.8-1.99,2.71-4.55,2.58-7.23c-0.13-2.68-1.3-5.14-3.29-6.93l-3.68-3.33
			c-1.85-1.67-4.23-2.59-6.72-2.59c-2.83,0-5.54,1.2-7.44,3.3l-2.18,2.41c-0.28,0.31-0.55,0.65-0.8,1.01l-0.1,0.11
			c-2.06,1.76-3.81,6.04-2.8,11.29c4.69,24.41,25.25,43,50,45.22c3.25,0.3,6.3-0.38,8.62-1.8c0.93-0.54,1.75-1.2,2.45-1.97
			l2.18-2.41c3.71-4.1,3.39-10.45-0.71-14.16l-3.68-3.33c-1.85-1.67-4.24-2.59-6.72-2.59c-2.83,0-5.54,1.21-7.44,3.3l-2.18,2.41
			c-0.93,1.03-1.63,2.22-2.07,3.53l-0.19,0.58l-0.57-0.23C249.3,98.65,241.37,91.37,236.7,82l-0.31-0.62l0.66-0.2
			C238.8,80.66,240.37,79.66,241.6,78.31z"/>
		<path class="st12" d="M253.84,49.38c0,1.29,1.05,2.34,2.34,2.34c16.38,0,29.71,13.33,29.71,29.71c0,1.29,1.05,2.34,2.34,2.34
			c1.29,0,2.34-1.05,2.34-2.34c0-18.96-15.43-34.39-34.39-34.39C254.89,47.04,253.84,48.09,253.84,49.38z"/>
		<path class="st12" d="M253.46,60.82c0,1.29,1.05,2.34,2.34,2.34c10.29,0,18.65,8.37,18.65,18.65c0,1.29,1.05,2.34,2.34,2.34
			c1.29,0,2.34-1.05,2.34-2.34c0-12.86-10.46-23.33-23.33-23.33C254.51,58.48,253.46,59.53,253.46,60.82z"/>
	</g>
</g>
</svg>
