<?xml version="1.0" encoding="utf-8"?>
<!-- Generator: Adobe Illustrator 26.0.1, SVG Export Plug-In . SVG Version: 6.00 Build 0)  -->
<svg version="1.1" id="Capa_1" xmlns="http://www.w3.org/2000/svg" xmlns:xlink="http://www.w3.org/1999/xlink" x="0px" y="0px"
	 viewBox="0 0 512 512" style="enable-background:new 0 0 512 512;" xml:space="preserve">
<style type="text/css">
	.st0{fill:#FF5408;}
	.st1{fill:#FF671D;}
	.st2{fill:#9D1D96;}
	.st3{fill:#1A428A;}
	.st4{fill:#F6A98F;}
	.st5{fill:#3C3C3B;}
	.st6{fill:#575756;}
	.st7{fill:#FCFAFA;}
	.st8{fill:#4569AF;}
	.st9{fill:#FBC19D;}
	.st10{fill:#ECECEC;}
	.st11{fill:url(#SVGID_1_);}
	.st12{fill:#FFFFFF;}
	.st13{fill:url(#SVGID_00000016758945487845424700000003785943774128535716_);}
	.st14{fill:url(#SVGID_00000008862209227473108680000007137204932854035894_);}
	.st15{fill:url(#SVGID_00000035530004356588790010000010795180278325767834_);}
	.st16{fill-rule:evenodd;clip-rule:evenodd;fill:#FF1753;}
	.st17{fill-rule:evenodd;clip-rule:evenodd;fill:#FFFFFF;}
	.st18{fill-rule:evenodd;clip-rule:evenodd;fill:#00C9D0;}
	.st19{fill:#B2B1B1;}
	.st20{fill:#B7B6B6;}
	.st21{fill:#B20098;}
	.st22{fill:#51504F;}
	.st23{fill:#4474BC;}
	.st24{opacity:0.33;fill:#FFFFFF;}
	.st25{fill:#E01717;}
	.st26{fill:#EDEBEB;}
	.st27{opacity:0.37;}
	.st28{fill:#F487E9;}
	.st29{fill:#E849E1;}
	.st30{fill:#CE1BBD;}
	.st31{fill:#A0C0E0;}
	.st32{fill:#5E8ABF;}
	.st33{fill:#3865A5;}
	.st34{fill:#F4CBBE;}
	.st35{fill:#F4B098;}
	.st36{fill:#F77F4F;}
	.st37{fill:url(#SVGID_00000078030765208881650890000012821285224851329927_);}
	.st38{fill:url(#SVGID_00000119110860226471436150000008776061473673145519_);}
	.st39{fill:url(#SVGID_00000147189317956037529360000016521902232204820911_);}
	.st40{fill:url(#SVGID_00000080920940705620831180000007038908313021403323_);}
	.st41{fill:url(#SVGID_00000085939144316938185730000000733143106700653225_);}
	.st42{fill:#FF5500;}
	.st43{fill:url(#SVGID_00000176737053961001006060000010124426660585425292_);}
	.st44{fill:url(#SVGID_00000062179222965390648840000017571929233938541235_);}
	.st45{fill:url(#SVGID_00000078742752311925447920000011323060755726961024_);}
	.st46{fill:url(#SVGID_00000160868683109867529140000015402133615585403837_);}
	.st47{fill:url(#SVGID_00000074413145955727914730000006266704532085637005_);}
	.st48{clip-path:url(#SVGID_00000093171720205886163790000015338575282797536688_);}
	.st49{fill-rule:evenodd;clip-rule:evenodd;fill:#5B1803;}
	.st50{fill:#E58A76;}
	.st51{fill:#F9AD95;}
	.st52{fill:#5B1803;}
	.st53{fill:#E2EBED;}
	.st54{fill:#F4BCB0;}
	.st55{fill-rule:evenodd;clip-rule:evenodd;fill:#F9C6B9;}
	.st56{fill:#232121;}
	.st57{fill-rule:evenodd;clip-rule:evenodd;fill:#B20098;}
	.st58{fill-rule:evenodd;clip-rule:evenodd;fill:url(#SVGID_00000142897384651873010000000005084633314925139334_);}
	.st59{fill-rule:evenodd;clip-rule:evenodd;fill:url(#SVGID_00000078731167764994963510000003077528048999416457_);}
	.st60{fill:#1D3751;}
	.st61{fill:#20346D;}
	.st62{fill:url(#SVGID_00000037693316509085156770000008882945779830801850_);}
	.st63{fill-rule:evenodd;clip-rule:evenodd;fill:url(#SVGID_00000162313937509521744040000007016785473346766260_);}
	.st64{fill-rule:evenodd;clip-rule:evenodd;fill:url(#SVGID_00000054971497198897515170000014148815556181410740_);}
	.st65{fill:#7A066F;}
	.st66{fill:url(#SVGID_00000154425094074920686240000008179802808031548840_);}
	.st67{fill:#11162A;}
	.st68{fill:#2A599E;}
	.st69{fill:#002133;}
	.st70{fill:#FFFEFF;}
	.st71{fill:#617478;}
	.st72{opacity:0.67;}
	.st73{opacity:0.15;}
	.st74{fill:#F0F1F2;}
	.st75{fill:#0086B5;}
	.st76{fill:#FFF69D;}
	.st77{fill:#484849;}
	.st78{fill:#EA7A00;}
	.st79{fill:#525251;}
	.st80{fill:#701E43;}
	.st81{fill:#FDF4F9;}
	.st82{fill:#F28E0F;}
	.st83{fill:#E25028;}
	.st84{fill:#EFEFEF;}
	.st85{fill:#FFB48C;}
	.st86{fill:#F19F77;}
	.st87{fill:#353534;}
	.st88{fill:#1F1F1F;}
	.st89{fill:#E9E9E9;}
	.st90{fill:#C9C9C9;}
	.st91{fill:#2C2C2B;}
	.st92{opacity:0.12;fill:#FFFFFF;}
	.st93{fill:#00A4DD;}
	.st94{fill:#DCDCDC;}
	.st95{fill:none;stroke:#FFFFFF;stroke-width:4;stroke-linecap:round;stroke-linejoin:round;}
	.st96{fill:none;stroke:#FFFFFF;stroke-width:4;stroke-linecap:round;stroke-linejoin:round;stroke-dasharray:0.2512,8.0389;}
	.st97{fill:#BBE2F9;}
	.st98{fill:#C6C6C6;}
	.st99{fill:#0080C6;}
	.st100{fill:#FFF2DB;}
	.st101{fill:#930386;}
	.st102{fill:#31241C;}
	.st103{fill:#EA9363;}
	.st104{opacity:0.15;fill:#AB5D2D;}
	.st105{fill:#1A191F;}
	.st106{fill:#1F0E03;}
	.st107{fill:#49687A;}
	.st108{fill:#F5CDB3;}
	.st109{clip-path:url(#SVGID_00000153704083177202575150000017617760442422485674_);}
	.st110{fill:#F86E3C;}
	.st111{opacity:0.6;fill:#FFD045;}
	.st112{clip-path:url(#SVGID_00000153704083177202575150000017617760442422485674_);fill:#B20098;}
	.st113{clip-path:url(#XMLID_00000117651392021727577680000011105724730763371454_);fill:#1A428A;}
	.st114{clip-path:url(#XMLID_00000033339178847067135710000011145875045002802834_);fill:#1A428A;}
	.st115{clip-path:url(#SVGID_00000076576438533311889160000011789018117959955889_);}
	.st116{fill:#D19E7B;}
	.st117{opacity:0.2;clip-path:url(#XMLID_00000158723022204613688360000014756137313552545207_);fill:#96A8B4;}
	.st118{fill:#496870;}
	.st119{opacity:0.4;fill:#FFFFFF;}
	.st120{fill:none;stroke:#1B424C;stroke-width:26;stroke-miterlimit:10;}
	.st121{fill:#FFBC99;}
	.st122{opacity:0.5;fill:#FFFFFF;}
	.st123{opacity:0.2;clip-path:url(#XMLID_00000122686591386445963890000012486999333171829647_);fill:#96A8B4;}
</style>
<g>
	<g>
		<g>
			<path class="st19" d="M420.11,351.12H66.3c-4.93,0-8.93-4-8.93-8.93V96.37c0-4.93,4-8.93,8.93-8.93h353.81
				c4.93,0,8.93,4,8.93,8.93v245.82C429.04,347.12,425.04,351.12,420.11,351.12z"/>
			<path class="st12" d="M79.28,297.37v-190.1c0-0.92,0.74-1.66,1.66-1.66h324.51c0.92,0,1.66,0.74,1.66,1.66v190.1
				c0,0.92-0.74,1.66-1.66,1.66H80.95C80.03,299.04,79.28,298.29,79.28,297.37z"/>
			<polygon class="st19" points="301.3,389.85 185.11,389.85 197.14,351.11 289.27,351.11 			"/>
			<polygon class="st20" points="293.35,364.26 289.27,351.11 197.14,351.11 193.06,364.26 			"/>
			<path class="st19" d="M332.37,389.86H154.04c-1.78,0-3.22,1.44-3.22,3.22v13.21c0,1.78,1.44,3.22,3.22,3.22h178.34
				c1.78,0,3.22-1.44,3.22-3.22v-13.21C335.59,391.3,334.15,389.86,332.37,389.86z"/>
			<circle class="st12" cx="243.2" cy="324.42" r="8.54"/>
		</g>
		<g>
			
				<ellipse transform="matrix(0.7071 -0.7071 0.7071 0.7071 -64.7911 201.7865)" class="st3" cx="211.18" cy="179.1" rx="40.56" ry="40.56"/>
			
				<ellipse transform="matrix(0.9727 -0.232 0.232 0.9727 -34.0646 68.5703)" class="st21" cx="274.48" cy="179.1" rx="40.56" ry="40.56"/>
			
				<ellipse transform="matrix(0.7071 -0.7071 0.7071 0.7071 -91.0945 236.609)" class="st0" cx="240.07" cy="228.27" rx="40.56" ry="40.56"/>
		</g>
		<g>
			<g>
				<path class="st22" d="M359.29,280.22h-233.5V128.43h233.5V280.22z M127.44,278.57h230.2V130.08h-230.2V278.57z"/>
				<rect x="120.94" y="273.08" class="st22" width="12" height="12"/>
				<rect x="120.94" y="123.26" class="st22" width="12" height="12"/>
				<rect x="352.72" y="273.08" class="st22" width="12" height="12"/>
				<rect x="352.72" y="123.26" class="st22" width="12" height="12"/>
			</g>
			<g>
				<g>
					<rect x="239.44" y="125.64" class="st22" width="6.79" height="6.79"/>
					<path class="st22" d="M247.05,133.26h-8.44v-8.44h8.44V133.26z M240.26,131.61h5.14v-5.14h-5.14V131.61z"/>
				</g>
				<g>
					<rect x="239.44" y="275.62" class="st22" width="6.79" height="6.79"/>
					<path class="st22" d="M247.05,283.23h-8.44v-8.44h8.44V283.23z M240.26,281.59h5.14v-5.14h-5.14V281.59z"/>
				</g>
			</g>
		</g>
		<g>
			<g>
				
					<rect x="23.77" y="348.83" transform="matrix(0.7071 0.7071 -0.7071 0.7071 265.9502 69.8559)" class="st3" width="49.76" height="14.26"/>
				
					<rect x="26.59" y="349.99" transform="matrix(0.7071 0.7071 -0.7071 0.7071 264.7844 67.0415)" class="st23" width="49.76" height="6.3"/>
				<path class="st22" d="M114.41,293.5L87.1,320.81c2.86,4.26,2.61,9.85-0.89,13.35c-4.02,4.02-10.81,3.75-15.16-0.6
					c-4.35-4.35-4.62-11.14-0.6-15.16c3.5-3.5,9.09-3.74,13.35-0.89l27.31-27.31l-62.66,13.44l0,0l-5.86,36.52l21.87,21.87
					l36.52-5.86L114.41,293.5z"/>
				
					<rect x="10.06" y="355.43" transform="matrix(0.7071 0.7071 -0.7071 0.7071 273.4014 87.8448)" class="st3" width="41.21" height="37.03"/>
				
					<rect x="35.26" y="365.87" transform="matrix(0.7071 0.7071 -0.7071 0.7071 283.8444 83.5231)" class="st23" width="11.69" height="37.03"/>
				
					<rect x="16.67" y="349.88" transform="matrix(0.7071 0.7071 -0.7071 0.7071 267.8415 90.1451)" class="st24" width="16.87" height="37.03"/>
			</g>
			<g>
				<path class="st21" d="M396.99,68.89l-46.58,46.68l22.92,22.87l46.58-46.68c6.31-6.33,6.3-16.58-0.02-22.9
					c-3.16-3.16-7.3-4.73-11.45-4.72C404.29,64.14,400.15,65.72,396.99,68.89z"/>
				<path class="st25" d="M419.89,68.86c-1.9-1.89-4.15-3.2-6.53-3.96c1.76,5.57,0.45,11.91-3.96,16.33l-25.65,25.7l-12.37-12.37
					l-20.96,21l22.92,22.87l20.93-20.98l0,0l25.65-25.7C426.23,85.43,426.22,75.17,419.89,68.86z"/>
				
					<rect x="358.51" y="102.7" transform="matrix(0.7063 -0.7079 0.7079 0.7063 24.4857 296.8021)" class="st26" width="22.92" height="32.38"/>
				<g>
					<path class="st22" d="M373.15,138.52c-8.21,32.49-54.43,20.22-54.43,20.22s11.14-2.75,11.3-21.86
						c0.13-15.62,14.57-20.37,20.13-21.32L373.15,138.52z"/>
				</g>
				<path class="st27" d="M373.15,138.52l-13.12-13.09c-0.38,25.16-41.32,33.31-41.32,33.31S364.94,171.01,373.15,138.52z"/>
			</g>
		</g>
		<g>
			<g>
				<path class="st12" d="M399.85,295.46l-35.79-4.55c-1.08-0.14-2.07,0.63-2.21,1.71l-17.96,141.11c-0.14,1.08,0.63,2.07,1.71,2.21
					l35.79,4.55c1.08,0.14,2.07-0.63,2.21-1.71l17.96-141.11C401.7,296.58,400.93,295.59,399.85,295.46z"/>
				
					<rect x="367.24" y="296.01" transform="matrix(0.1263 -0.992 0.992 0.1263 23.4908 648.2091)" class="st28" width="24.95" height="29.51"/>
				
					<rect x="363.52" y="325.28" transform="matrix(0.1262 -0.992 0.992 0.1262 -8.7894 670.0854)" class="st29" width="24.95" height="29.51"/>
				
					<rect x="359.78" y="354.62" transform="matrix(0.1263 -0.992 0.992 0.1263 -41.1704 692.0213)" class="st30" width="24.95" height="29.51"/>
				
					<rect x="356.06" y="383.89" transform="matrix(0.1262 -0.992 0.992 0.1262 -73.4509 713.898)" class="st21" width="24.95" height="29.51"/>
				<g>
					<path class="st12" d="M462.04,321.84l-32.42-15.83c-0.98-0.48-2.16-0.07-2.64,0.91l-62.42,127.81
						c-0.48,0.98-0.07,2.16,0.91,2.64l32.42,15.83c0.98,0.48,2.16,0.07,2.64-0.91l62.42-127.81
						C463.43,323.5,463.02,322.32,462.04,321.84z"/>
					
						<rect x="425.58" y="315.1" transform="matrix(0.4388 -0.8986 0.8986 0.4388 -50.579 578.7199)" class="st31" width="24.95" height="29.51"/>
					
						<rect x="412.63" y="341.6" transform="matrix(0.4388 -0.8986 0.8986 0.4388 -81.6613 581.9621)" class="st32" width="24.95" height="29.51"/>
					
						<rect x="399.65" y="368.19" transform="matrix(0.4388 -0.8986 0.8986 0.4388 -112.8359 585.2139)" class="st33" width="24.95" height="29.51"/>
					
						<rect x="386.7" y="394.7" transform="matrix(0.4388 -0.8986 0.8986 0.4388 -143.9182 588.4562)" class="st3" width="24.95" height="29.51"/>
				</g>
				<g>
					<path class="st12" d="M508.67,363.13l-25.5-25.52c-0.77-0.77-2.02-0.77-2.79,0L379.76,438.16c-0.77,0.77-0.77,2.02,0,2.79
						l25.5,25.52c0.77,0.77,2.02,0.77,2.79,0l100.61-100.55C509.44,365.15,509.44,363.9,508.67,363.13z"/>
					
						<rect x="470.9" y="348.15" transform="matrix(0.7073 -0.7069 0.7069 0.7073 -115.0621 447.9034)" class="st34" width="24.95" height="29.51"/>
					
						<rect x="450.04" y="369" transform="matrix(0.7073 -0.7069 0.7069 0.7073 -135.9085 439.2599)" class="st35" width="24.95" height="29.51"/>
					
						<rect x="429.11" y="389.92" transform="matrix(0.7073 -0.7069 0.7069 0.7073 -156.8174 430.5846)" class="st36" width="24.95" height="29.51"/>
					
						<rect x="408.25" y="410.77" transform="matrix(0.7073 -0.7069 0.7069 0.7073 -177.6642 421.938)" class="st0" width="24.95" height="29.51"/>
				</g>
			</g>
		</g>
	</g>
</g>
</svg>
