<?xml version="1.0" encoding="utf-8"?>
<!-- Generator: Adobe Illustrator 26.0.1, SVG Export Plug-In . SVG Version: 6.00 Build 0)  -->
<svg version="1.1" id="Capa_1" xmlns="http://www.w3.org/2000/svg" xmlns:xlink="http://www.w3.org/1999/xlink" x="0px" y="0px"
	 viewBox="0 0 512 512" style="enable-background:new 0 0 512 512;" xml:space="preserve">
<style type="text/css">
	.st0{fill:#FF5408;}
	.st1{fill:#FF671D;}
	.st2{fill:#9D1D96;}
	.st3{fill:#1A428A;}
	.st4{fill:#F6A98F;}
	.st5{fill:#3C3C3B;}
	.st6{fill:#575756;}
	.st7{fill:#FCFAFA;}
	.st8{fill:#4569AF;}
	.st9{fill:#FBC19D;}
	.st10{fill:#ECECEC;}
	.st11{fill:url(#SVGID_1_);}
	.st12{fill:#FFFFFF;}
	.st13{fill:url(#SVGID_00000104694164446852874310000008688943006906467718_);}
	.st14{fill:url(#SVGID_00000067215190217717990250000002651607977131708842_);}
	.st15{fill:url(#SVGID_00000004530632326074165210000016770469239353390504_);}
	.st16{fill-rule:evenodd;clip-rule:evenodd;fill:#FF1753;}
	.st17{fill-rule:evenodd;clip-rule:evenodd;fill:#FFFFFF;}
	.st18{fill-rule:evenodd;clip-rule:evenodd;fill:#00C9D0;}
	.st19{fill:#B2B1B1;}
	.st20{fill:#B7B6B6;}
	.st21{fill:#B20098;}
	.st22{fill:#51504F;}
	.st23{fill:#4474BC;}
	.st24{opacity:0.33;fill:#FFFFFF;}
	.st25{fill:#E01717;}
	.st26{fill:#EDEBEB;}
	.st27{opacity:0.37;}
	.st28{fill:#F487E9;}
	.st29{fill:#E849E1;}
	.st30{fill:#CE1BBD;}
	.st31{fill:#A0C0E0;}
	.st32{fill:#5E8ABF;}
	.st33{fill:#3865A5;}
	.st34{fill:#F4CBBE;}
	.st35{fill:#F4B098;}
	.st36{fill:#F77F4F;}
	.st37{fill:url(#SVGID_00000113353057545953019290000000592700240454467233_);}
	.st38{fill:url(#SVGID_00000150804503564956632530000018159837750797147046_);}
	.st39{fill:url(#SVGID_00000010284874955890343290000005051148686727475097_);}
	.st40{fill:url(#SVGID_00000106134869511087788390000015654317010304297652_);}
	.st41{fill:url(#SVGID_00000058578964320323160440000004370716026311568272_);}
	.st42{fill:#FF5500;}
	.st43{fill:url(#SVGID_00000067928011894401001380000014115403569724162978_);}
	.st44{fill:url(#SVGID_00000037685502978486356410000015803471681460062853_);}
	.st45{fill:url(#SVGID_00000003818870632437764920000006069565006485498528_);}
	.st46{fill:url(#SVGID_00000165208466391577478320000003450402760948075673_);}
	.st47{fill:url(#SVGID_00000140721728412310201600000010561689371107471535_);}
	.st48{clip-path:url(#SVGID_00000162345416421177517120000016835737799631204252_);}
	.st49{fill-rule:evenodd;clip-rule:evenodd;fill:#5B1803;}
	.st50{fill:#E58A76;}
	.st51{fill:#F9AD95;}
	.st52{fill:#5B1803;}
	.st53{fill:#E2EBED;}
	.st54{fill:#F4BCB0;}
	.st55{fill-rule:evenodd;clip-rule:evenodd;fill:#F9C6B9;}
	.st56{fill:#232121;}
	.st57{fill-rule:evenodd;clip-rule:evenodd;fill:#B20098;}
	.st58{fill-rule:evenodd;clip-rule:evenodd;fill:url(#SVGID_00000156549443312899177010000009850545072542856617_);}
	.st59{fill-rule:evenodd;clip-rule:evenodd;fill:url(#SVGID_00000065070403376157060140000012223700472476528559_);}
	.st60{fill:#1D3751;}
	.st61{fill:#20346D;}
	.st62{fill:url(#SVGID_00000008838497116263900780000009120689383148499125_);}
	.st63{fill-rule:evenodd;clip-rule:evenodd;fill:url(#SVGID_00000134249198095408356750000003812844903432107162_);}
	.st64{fill-rule:evenodd;clip-rule:evenodd;fill:url(#SVGID_00000158022661115335911990000003595622041928349349_);}
	.st65{fill:#7A066F;}
	.st66{fill:url(#SVGID_00000018933856509475449930000003276798107161528738_);}
	.st67{fill:#11162A;}
	.st68{fill:#2A599E;}
	.st69{fill:#002133;}
	.st70{fill:#FFFEFF;}
	.st71{fill:#617478;}
	.st72{opacity:0.67;}
	.st73{opacity:0.15;}
	.st74{fill:#F0F1F2;}
	.st75{fill:#0086B5;}
	.st76{fill:#FFF69D;}
	.st77{fill:#484849;}
	.st78{fill:#EA7A00;}
	.st79{fill:#525251;}
	.st80{fill:#701E43;}
	.st81{fill:#FDF4F9;}
	.st82{fill:#F28E0F;}
	.st83{fill:#E25028;}
	.st84{fill:#EFEFEF;}
	.st85{fill:#FFB48C;}
	.st86{fill:#F19F77;}
	.st87{fill:#353534;}
	.st88{fill:#1F1F1F;}
	.st89{fill:#E9E9E9;}
	.st90{fill:#C9C9C9;}
	.st91{fill:#2C2C2B;}
	.st92{opacity:0.12;fill:#FFFFFF;}
	.st93{fill:#00A4DD;}
	.st94{fill:#DCDCDC;}
	.st95{fill:none;stroke:#FFFFFF;stroke-width:4;stroke-linecap:round;stroke-linejoin:round;}
	.st96{fill:none;stroke:#FFFFFF;stroke-width:4;stroke-linecap:round;stroke-linejoin:round;stroke-dasharray:0.2512,8.0389;}
	.st97{fill:#BBE2F9;}
	.st98{fill:#C6C6C6;}
	.st99{fill:#0080C6;}
	.st100{fill:#FFF2DB;}
	.st101{fill:#930386;}
	.st102{fill:#31241C;}
	.st103{fill:#EA9363;}
	.st104{opacity:0.15;fill:#AB5D2D;}
	.st105{fill:#1A191F;}
	.st106{fill:#1F0E03;}
	.st107{fill:#49687A;}
	.st108{fill:#F5CDB3;}
	.st109{clip-path:url(#SVGID_00000121277469037678276290000003947823900830301826_);}
	.st110{fill:#F86E3C;}
	.st111{opacity:0.6;fill:#FFD045;}
	.st112{clip-path:url(#SVGID_00000121277469037678276290000003947823900830301826_);fill:#B20098;}
	.st113{clip-path:url(#XMLID_00000036951078063663564920000000216181643200255672_);fill:#1A428A;}
	.st114{clip-path:url(#XMLID_00000168101961170926025270000012436133259777428382_);fill:#1A428A;}
	.st115{clip-path:url(#SVGID_00000137109516579757248570000010503388958983011495_);}
	.st116{fill:#D19E7B;}
	.st117{opacity:0.2;clip-path:url(#XMLID_00000012435718401779249600000007539670345812383377_);fill:#96A8B4;}
	.st118{fill:#496870;}
	.st119{opacity:0.4;fill:#FFFFFF;}
	.st120{fill:none;stroke:#1B424C;stroke-width:26;stroke-miterlimit:10;}
	.st121{fill:#FFBC99;}
	.st122{opacity:0.5;fill:#FFFFFF;}
	.st123{opacity:0.2;clip-path:url(#XMLID_00000075138054328732815620000006026460797564153736_);fill:#96A8B4;}
</style>
<g>
	<g>
		<path class="st84" d="M450.14,154.9c-7.65,9.41-22.21,14.88-33.22,18.46l6.4,1.77c0.16-0.04,0.32-0.07,0.49-0.1
			c5.76-1,11.5,2.83,14.56,7.81c3.76,6.13,5.49,14.63,4.7,21.78c-1.15,10.42-7.09,20.05-15.66,27.07
			c-5.53,4.53-13.01,9.17-20.49,8.29l2.07,1.47c1.23-0.53,2.52-0.9,3.9-1.04c6.24-0.65,12.64,3.68,16.16,9.03
			c4.33,6.58,6.54,15.46,5.96,22.79c-0.85,10.66-6.95,20.19-16.01,26.87c-5.2,3.83-12.07,7.63-19.27,7.44l0.12,0.17
			c0.38-0.05,0.76-0.09,1.14-0.1c5.53-0.17,11.65,6,13.11,11.17c1.79,6.35,1.1,14.69-1.54,21.4c-3.84,9.78-13.75,16.41-23.45,21.95
			c-5.69,3.25-12.88,6.37-19.09,5.53l-16.37,68.9c-0.12,0.52-0.25,1.03-0.36,1.55c-0.13,0.52-0.25,1.04-0.38,1.56
			c-0.18,0.81-0.38,1.63-0.57,2.45l-0.02,0.09c-0.21,0.94-0.44,1.87-0.68,2.79c-3.03,12.43-12.36,22.12-24.34,25.28
			c-4.96,1.32-10.03,1.41-15.04,0.28l-34.38-8.18c-30.24,20.4-43.34,26.81-66.37,43.37c-2.9-0.34-5.79-0.73-8.65-1.17
			c-60.55-9.34-113.6-41.41-150.13-87.24c6.96-9.88,12.43-19.56,15.8-28.71c10.08-27.44,11.95-58.1,17.97-90.43
			c14.93-80.16,16.46-145.63,32.87-161.39c5.65-5.4,19.76-7.63,33.55-24.9v-0.01h0.01c0.41-0.52,0.82-1.05,1.23-1.59
			c0.27-0.36,0.54-0.72,0.81-1.08c0.15-0.2,0.3-0.41,0.45-0.62c0.38-0.54,0.76-1.08,1.14-1.64c0.09-0.14,0.18-0.27,0.27-0.4
			c0.25-0.38,0.51-0.75,0.75-1.12c0.17-0.26,0.34-0.52,0.5-0.78c0.16-0.25,0.32-0.5,0.48-0.74c0.18-0.28,0.36-0.56,0.53-0.85
			c0.13-0.21,0.26-0.41,0.39-0.62c0.19-0.3,0.37-0.6,0.55-0.89c0.09-0.15,0.18-0.29,0.27-0.44c0.69-1.16,1.35-2.28,1.97-3.38
			c0.03-0.05,0.06-0.11,0.09-0.16c0.21-0.37,0.41-0.75,0.62-1.11c0.03-0.05,0.05-0.09,0.08-0.14c3.39-6.19,5.64-11.35,7.87-15.3
			c0.02-0.04,0.04-0.07,0.06-0.1c0.15-0.27,0.3-0.53,0.46-0.78c0.02-0.05,0.05-0.09,0.08-0.14c0.15-0.26,0.31-0.52,0.47-0.76
			c0.02-0.02,0.04-0.05,0.05-0.08c0.18-0.28,0.36-0.55,0.53-0.81c0.01-0.01,0.01-0.02,0.02-0.03c0.17-0.24,0.33-0.47,0.49-0.69
			c0.05-0.07,0.09-0.13,0.15-0.2c0.12-0.17,0.25-0.33,0.39-0.49c0.05-0.07,0.11-0.14,0.17-0.21c0.13-0.15,0.26-0.3,0.39-0.45
			c0.05-0.06,0.11-0.12,0.17-0.18c0.18-0.2,0.36-0.39,0.54-0.56l0.03-0.03c0.1-0.1,0.2-0.2,0.3-0.3c0.1-0.09,0.2-0.17,0.3-0.26
			c0.01-0.01,0.02-0.02,0.04-0.03c0.21-0.18,0.43-0.36,0.65-0.52c0.11-0.08,0.23-0.17,0.34-0.24c0.04-0.02,0.08-0.05,0.12-0.07
			c0.27-0.18,0.56-0.36,0.85-0.52c0.07-0.04,0.15-0.08,0.23-0.12c0.29-0.15,0.59-0.28,0.89-0.41c0.05-0.02,0.1-0.05,0.15-0.07
			c0.14-0.05,0.27-0.11,0.41-0.15c0.39-0.13,0.78-0.24,1.17-0.34c0.09-0.02,0.19-0.05,0.28-0.07c0.15-0.04,0.3-0.08,0.46-0.11
			c0.21-0.04,0.42-0.08,0.63-0.12c0.01,0,0.03-0.01,0.04-0.01c0.21-0.04,0.42-0.07,0.63-0.09c0.44-0.06,0.88-0.1,1.32-0.12
			c0.23-0.01,0.44-0.02,0.67-0.02c16.49-0.23,18.77,18.99,15.75,38.03c0.05-0.05,0.12-0.1,0.18-0.14l0.08-0.04
			c0.01-0.01,0.01-0.01,0.02-0.01c0.34-0.2,0.75-0.26,1.14-0.17c0.5,0.12,0.94,0.3,1.32,0.51c0.02,0.01,0.05,0,0.05-0.02l4.47-19.41
			c0.01-0.02-0.01-0.04-0.04-0.05c-0.22,0.01-0.43,0-0.64-0.02c-0.05-0.01-0.11-0.02-0.16-0.02c-0.44-0.08-0.83-0.33-1.08-0.67
			c-0.25-0.37-0.34-0.81-0.23-1.26l5.14-21.58c0.09-0.41,0.34-0.76,0.69-0.97c0.34-0.21,0.77-0.27,1.17-0.2
			c0.12,0.02,0.23,0.05,0.34,0.09c0.21,0.08,0.4,0.17,0.59,0.27c0.02,0.01,0.04,0,0.05-0.02l5.53-23.13
			c0.66-2.79,1.43-5.3,2.32-7.59c0.74-1.91,1.56-3.66,2.48-5.27c1.56-2.77,3.42-5.14,5.63-7.25c7.69-7.33,18.3-10.56,28.39-8.62
			c1.11,0.21,2.18,0.48,3.22,0.73c0.4,0.1,0.79,0.2,1.18,0.29l148.35,35.28c0.21,0.05,0.42,0.1,0.63,0.15
			c4.1,1.01,7.13,2.19,9.84,3.81c8.72,5.22,14.6,14.63,15.72,25.17c0.62,5.79-0.68,11.2-1.81,15.98l-5.67,23.83
			c13.91,0.78,22.17,3.45,25.39,15.3C456.75,142.55,454.63,149.4,450.14,154.9z"/>
		<g>
			<g>
				<path class="st85" d="M359.06,132.76c-1.66,6.72-3.04,13.51-4.21,20.35c-0.78,4.54-1.45,9.11-2.04,13.7
					c-0.05,0.4-0.1,0.81-0.15,1.21c-2.27,18.15-3.2,36.5-3.63,54.6c-0.02,0.77-0.04,1.53-0.05,2.3c-0.02,0.84-0.04,1.69-0.05,2.53
					c-0.18,9.82-0.18,19.64-0.09,29.47c0.05,5.57,0.14,11.15,0.23,16.72c0.02,1.16,0.04,2.31,0.06,3.46
					c0.29,16.77,0.66,33.53,0.65,50.3c0,3.73-0.02,7.47-0.07,11.2c-0.05,3.99-0.12,7.99-0.23,11.98c-0.02,0.99-0.05,1.97-0.08,2.96
					c-0.18,5.84-0.47,11.67-0.76,17.51c-0.4,8.03-0.82,16.05-1.01,24.09c-0.02,0.98-0.04,1.96-0.05,2.94
					c-2.3,2.39-4.64,4.69-7.01,6.9c-22.12,20.65-46.28,33.28-56.78,40.61c-1.28,0.89-2.53,1.77-3.76,2.61
					c-2.8,1.94-5.46,3.76-8,5.49c-1.06,0.72-2.1,1.42-3.11,2.1c-32.35,21.82-45.08,27.64-71.34,46.98
					c-62.63-9.66-117.23-43.64-153.83-92c6.97-9.88,12.45-19.57,15.82-28.73c10.08-27.44,11.95-58.1,17.97-90.43
					c14.93-80.16,16.46-145.63,32.87-161.39c5.65-5.4,19.76-7.63,33.55-24.9v-0.01h0.01c0.3-0.38,0.6-0.77,0.91-1.16
					c0.91-1.18,1.82-2.44,2.72-3.77c10.31-15.15,12.97-26.19,18.35-31.44c0.11-0.11,0.21-0.2,0.31-0.3
					c0.32-0.29,0.65-0.56,0.98-0.81c0.11-0.08,0.23-0.17,0.34-0.24c0.69-0.48,1.43-0.88,2.25-1.19c0.14-0.05,0.27-0.11,0.41-0.15
					c0.63-0.21,1.27-0.39,1.91-0.53c0.43-0.09,0.86-0.17,1.3-0.22c0.44-0.06,0.88-0.1,1.32-0.12c0.23-0.01,0.44-0.02,0.67-0.02
					c16.49-0.23,18.77,18.99,15.75,38.03c-0.07,0.43-0.14,0.85-0.21,1.28c-1.29,7.5-3.04,14.25-5.4,21.04
					c-4.44,12.82-10.98,25.77-20.4,44.09c-0.37,0.72-0.74,1.46-1.1,2.22c-0.66,1.36-1.09,3.01-1.36,4.91
					c-1.29,9,1.1,23.58,0.86,40.58c-0.06,4.01,0.3,7.09,1.01,9.36c0.45,1.45,1.05,2.58,1.79,3.41c0.16,0.19,0.34,0.36,0.52,0.52
					c1.65,1.46,3.86,1.68,6.52,0.96c7.32-1.96,18.03-10.97,29.78-20.79c9.83-8.21,20.38-16.98,30.27-22.67
					c-6.8-11.85-12.02-21.79-10.46-31.62c0.33-2.1,0.98-4.2,1.98-6.31c12.67-26.68,70.58-38.7,119.39-23.23
					C349.39,128.7,354.31,130.58,359.06,132.76z"/>
				<path class="st86" d="M159.38,445.6c0,0,7.91,8.45,14.96,12.91c11.15,7.06,24.54,7.28,24.54,7.28s-11.38-3.39-21.39-8.91
					C167.95,451.63,159.38,445.6,159.38,445.6z"/>
				<path class="st86" d="M96.44,369.3c0,0,5.69,18.68,13.77,31.06c12.79,19.61,36.25,31.76,36.25,31.76s-16.8-14.75-29.09-31.22
					C105.68,385.22,96.44,369.3,96.44,369.3z"/>
				<path class="st86" d="M349.19,359.41c-4.17-1.91-8.29-3.83-12.29-5.73c-32.94-15.59-54.96-27.88-55.81-28.32
					c0.73,0.48,15.93,11.91,39.3,23.48c8.76,4.33,18.66,8.82,28.69,13.15C349.11,361.14,349.15,360.27,349.19,359.41z"/>
				<path class="st21" d="M143.96,105.31c16.99,0.01,31.1-7.49,34.7-19.96c1.9-6.58,0.58-13.56-3.21-20.01
					c-1.79,0.02-3.53,0.31-5.21,0.89c-8.86,3.08-9.95,15.5-22.65,34.14C146.38,102.15,145.17,103.79,143.96,105.31z"/>
				<path class="st86" d="M137.65,156.17c4.07,3.88,15.39,14.4,25.08,20.74c0.26-1.9,0.7-3.54,1.35-4.91
					c0.36-0.75,0.73-1.49,1.1-2.22c-6.78-3.18-14.61-6.89-15.34-7.31l-11.78-6.71C137.75,155.6,137.38,155.92,137.65,156.17z"/>
			</g>
			<path class="st85" d="M397.36,171.2c13.18-4.77,55.99-13.83,48.11-42.85c-3.29-12.11-11.83-14.63-26.28-15.35
				c-17.6-0.88-67.52,1.16-79.45,19.01c-9.47,14.16,11.16,33.47,21.16,42.4C368.84,181.51,381.79,176.83,397.36,171.2z"/>
			<polygon class="st86" points="417.76,170.46 344.18,150.16 344.99,229.31 408.07,199.46 			"/>
			<polygon class="st86" points="403.16,316.79 358.86,260.15 315.08,320.5 379.56,333.3 			"/>
			<polygon class="st86" points="417.74,248.41 355.46,204.27 329.3,278.98 398.77,272.38 			"/>
			<g>
				<g>
					<path class="st87" d="M427.56,73.24c-1.11-10.54-6.99-19.95-15.71-25.17c-2.71-1.62-5.75-2.8-9.84-3.81
						c-0.21-0.05-0.42-0.1-0.63-0.15L253.03,8.83c-0.4-0.09-0.79-0.19-1.18-0.29c-1.04-0.25-2.11-0.52-3.22-0.73
						c-10.09-1.94-20.7,1.29-28.39,8.62c-3.5,3.34-6.12,7.35-8.12,12.52c-0.89,2.29-1.65,4.8-2.32,7.59l-5.53,23.13
						c-0.01,0.02-0.03,0.04-0.05,0.02c-0.18-0.1-0.37-0.19-0.58-0.27c-0.11-0.05-0.22-0.07-0.34-0.09c-0.4-0.07-0.83-0.01-1.17,0.2
						c-0.34,0.21-0.59,0.56-0.69,0.97l-5.14,21.58c-0.11,0.45-0.02,0.89,0.23,1.26c0.25,0.34,0.63,0.59,1.08,0.67
						c0.05,0.01,0.11,0.02,0.16,0.02c0.21,0.02,0.42,0.03,0.64,0.02c0.02,0.01,0.05,0.02,0.04,0.05l-4.47,19.41
						c-0.01,0.02-0.04,0.04-0.05,0.02c-0.38-0.21-0.82-0.39-1.32-0.51c-0.4-0.09-0.81-0.04-1.14,0.17c-0.01,0-0.01,0.01-0.02,0.01
						l-0.08,0.04c-0.07,0.04-0.13,0.09-0.19,0.14c-0.24,0.21-0.41,0.49-0.49,0.82l-5.12,21.5l-4.86,20.4
						c-0.09,0.41-0.03,0.84,0.2,1.2c0.23,0.37,0.57,0.62,0.98,0.72c0.09,0.02,0.19,0.04,0.28,0.06c0.4,0.08,0.76,0.1,1.11,0.08
						c0.03,0,0.05,0.02,0.04,0.05l-1.38,5.79c-0.01,0.02-0.04,0.04-0.06,0.02c-0.37-0.21-0.81-0.39-1.31-0.5
						c-0.4-0.09-0.82-0.04-1.16,0.17c-0.02,0.01-0.04,0.02-0.05,0.03l-0.02,0.01c-0.34,0.22-0.59,0.56-0.68,0.97l-9.98,41.9
						c-0.09,0.41-0.03,0.84,0.2,1.2c0.23,0.37,0.57,0.62,0.98,0.72c0.09,0.02,0.2,0.04,0.29,0.07c0.4,0.08,0.77,0.1,1.11,0.09
						c0.02-0.01,0.04,0.02,0.04,0.05l-6.71,28.16l-35.68,149.73c-0.2,0.85-0.41,1.7-0.62,2.55c-0.2,0.82-0.39,1.65-0.59,2.48
						l-0.59,2.49c-0.2,0.81-0.39,1.62-0.57,2.42c-3.64,15.38,2.9,31.03,15.89,38.07c3.32,1.8,6.87,2.81,9.6,3.48
						c1.47,0.36,2.94,0.69,4.38,1c1.16,0.25,2.25,0.49,3.34,0.75l109.17,25.97l34.38,8.18c5.01,1.13,10.06,1.04,15.04-0.28
						c11.98-3.16,21.3-12.85,24.34-25.28c0.23-0.92,0.46-1.85,0.68-2.79l0.02-0.09c0.2-0.82,0.39-1.64,0.57-2.45
						c0.12-0.52,0.25-1.04,0.37-1.56c0.12-0.52,0.24-1.03,0.37-1.55l16.37-68.9l2.53-10.65l4.6-19.37l0.25-1.04l4.32-18.18
						l4.08-17.16l2.1-8.83l1.02-4.29l1.79-7.54l0.83-3.5l6.13-25.78l0.85-3.59c0.01-0.02,0.04-0.04,0.05-0.02
						c0.45,0.24,0.97,0.43,1.55,0.57c0.02,0.01,0.05,0.01,0.08,0.02c0.2,0.04,0.4,0.04,0.59,0c0.17-0.02,0.33-0.08,0.47-0.16
						l0.09-0.06c0.33-0.2,0.55-0.49,0.66-0.86c0.01-0.02,0.01-0.05,0.02-0.07l1.65-6.9l0.31-1.33l2.3-9.66l4.86-20.41l0.89-3.72
						l5.38-22.58c0.11-0.44,0.01-0.89-0.26-1.27c-0.25-0.33-0.63-0.54-1.03-0.63c-0.2-0.04-0.39-0.08-0.58-0.11
						c-0.33-0.05-0.64-0.07-0.94-0.07c-0.03,0-0.05-0.02-0.04-0.05l1.36-5.72l0.14-0.57l12.3-51.64l0.68-2.84l5.68-23.83
						C426.89,84.44,428.18,79.03,427.56,73.24z M423.42,87.76l-0.01,0.05c-0.12,0.49-0.24,0.98-0.36,1.48l-5.62,23.62l-0.11,0.46
						l-12.72,53.46l-0.52,2.17l-2.26,9.52l-5.23,21.99l-1.17,4.92l-2.7,11.36l-2.83,11.87l-0.46,1.93l-4.3,18.08l-5.89,24.79
						l-0.18,0.77l-1.27,5.33l-0.87,3.66l-2.2,9.24l-5.3,22.29l-3.75,15.78l-0.19,0.78l-3.9,16.42l-3.03,12.73l-11.54,48.51
						c-0.8,3.35-1.6,6.71-2.39,10.07l-0.68,2.83c-0.84,3.54-1.68,7.07-2.52,10.6c-0.2,0.82-0.4,1.66-0.6,2.51
						c-0.15,0.63-0.31,1.27-0.46,1.9l-0.17,0.71c-2.71,11.21-11.01,20.11-21.65,23.22c-4.77,1.4-9.67,1.56-14.56,0.46l-31.94-7.59
						L160.72,427.2c-1.11-0.27-2.25-0.51-3.52-0.78c-1.41-0.3-3-0.63-4.57-1.02c-3.41-0.85-6.05-1.78-8.3-2.94
						c-6.26-3.22-11-8.44-13.71-15.11c-0.15-0.37-0.3-0.75-0.43-1.13c-0.08-0.22-0.15-0.45-0.23-0.67c-1.96-5.96-2.01-13.49,2-29.95
						c0.01-0.01,0.01-0.03,0.02-0.06v-0.01c0.58-2.44,16.65-69.52,34.94-144.76c20.02-82.34,42.69-174.43,50.66-202.27
						c1.43-5.01,2.39-7.93,2.77-8.36c7.33-8.18,18.41-11.77,28.92-9.38c0.81,0.18,1.61,0.38,2.41,0.57c0.4,0.09,0.78,0.19,1.17,0.28
						L400.5,46.75c0.3,0.07,0.6,0.14,0.89,0.21c2.43,0.6,5.29,1.42,8.06,2.92c9.68,5.25,15.83,16.02,15.66,27.45
						C425.07,81.02,424.23,84.45,423.42,87.76z"/>
					<path class="st12" d="M417.93,77.23c-0.04,2.89-0.74,5.79-1.49,8.86c-0.13,0.51-0.25,1.03-0.37,1.54l-76.05,319.69
						c-0.8,3.36-1.6,6.72-2.39,10.08c-1.06,4.47-2.12,8.94-3.19,13.41c-0.2,0.82-0.39,1.64-0.59,2.47
						c-0.21,0.85-0.41,1.71-0.62,2.56l-0.01,0.05c-2.11,8.73-8.5,15.64-16.68,18.03c-3.59,1.06-7.28,1.18-10.97,0.35l-143.18-34.06
						c-1.22-0.29-2.47-0.56-3.69-0.82c-1.43-0.31-2.91-0.62-4.34-0.97c-2.85-0.71-5-1.45-6.74-2.35
						c-4.71-2.42-8.29-6.37-10.35-11.43c-2.02-4.95-2.4-10.69-1.65-13.93l24.46-102.83l40.71-171.1l17.87-75.12
						c2-8.32,3.59-12.85,7.03-16.7c5.59-6.23,14.01-8.98,21.97-7.17c0.77,0.18,1.54,0.36,2.32,0.55c0.4,0.1,0.8,0.2,1.21,0.29
						l147.66,35.12c0.28,0.07,0.55,0.13,0.83,0.2c2.09,0.52,4.31,1.15,6.36,2.27C413.38,60.19,418.05,68.44,417.93,77.23z"/>
					<path class="st88" d="M409.45,49.88c-2.77-1.5-5.63-2.32-8.06-2.92c-0.29-0.07-0.59-0.14-0.89-0.21L252.82,11.62
						c-0.39-0.09-0.77-0.18-1.17-0.28c-0.8-0.2-1.6-0.39-2.41-0.57c-10.5-2.39-21.58,1.2-28.92,9.38c-2.27,2.54-3.91,5.25-5.27,8.54
						c-1.29,3.13-2.32,6.78-3.41,11.29l-45.27,190.29l-37.77,158.78c-0.99,4.25-0.66,10.65,1.33,16.51
						c0.07,0.23,0.15,0.45,0.23,0.67c0.14,0.38,0.28,0.75,0.43,1.13c2.71,6.67,7.45,11.9,13.71,15.11c2.25,1.16,4.89,2.09,8.3,2.94
						c1.58,0.39,3.16,0.73,4.57,1.02c1.27,0.27,2.42,0.52,3.52,0.78l111.32,26.48l31.94,7.59c4.89,1.1,9.79,0.94,14.56-0.46
						c10.64-3.12,18.93-12.01,21.65-23.22l0.17-0.71c0.15-0.63,0.3-1.27,0.46-1.9c0.21-0.84,0.41-1.68,0.6-2.51
						c0.84-3.53,1.68-7.06,2.52-10.6l0.68-2.83c0.79-3.36,1.59-6.72,2.39-10.07l11.54-48.51l3.03-12.73l3.9-16.42l0.19-0.78
						l3.75-15.78l5.3-22.29l2.2-9.24l0.87-3.66l1.27-5.33l0.18-0.77l5.89-24.79l4.3-18.08l0.46-1.93l2.83-11.87l2.7-11.36l1.17-4.92
						l5.23-21.99l2.26-9.52l0.52-2.17l12.72-53.46l0.11-0.46l5.62-23.62c0.11-0.49,0.23-0.98,0.36-1.48l0.01-0.05
						c0.81-3.31,1.65-6.74,1.69-10.43C425.28,65.9,419.13,55.13,409.45,49.88z M416.43,86.08c-0.12,0.52-0.25,1.02-0.37,1.54
						l-4.54,19.08l-1.46,6.13l-12.39,52.08l-1.61,6.75l-5.01,21.07l-3.44,14.45l-0.52,2.19l-0.05,0.21l-3.45,14.47l-0.03,0.14
						l-10.13,42.58l-1.95,8.19l-0.24,1.02l-1.84,7.76l-9.82,41.28l-0.98,4.11l-2.51,10.53l-0.15,0.63l-3.66,15.39l-3.65,15.34
						l-8.07,33.93l-0.56,2.35c-0.8,3.36-1.6,6.72-2.39,10.08c-1.06,4.47-2.12,8.94-3.19,13.41c-0.19,0.82-0.39,1.64-0.59,2.46
						c-0.21,0.86-0.41,1.71-0.61,2.56l-0.02,0.05c-2.1,8.73-8.5,15.64-16.68,18.03c-3.6,1.06-7.28,1.18-10.97,0.35l-25.52-6.07
						L162.38,420.2c-1.21-0.29-2.48-0.56-3.7-0.82c-1.43-0.3-2.91-0.62-4.34-0.97c-2.86-0.7-4.99-1.45-6.74-2.35
						c-4.71-2.42-8.29-6.37-10.35-11.43c-2.01-4.95-2.4-10.69-1.65-13.93l37.82-158.97l45.22-190.1c1.48-6.13,2.73-10.21,4.67-13.47
						c0.69-1.16,1.47-2.22,2.37-3.23c5.59-6.23,14-8.97,21.97-7.17c0.77,0.18,1.54,0.37,2.32,0.55c0.4,0.1,0.81,0.2,1.21,0.29
						l147.66,35.12c0.28,0.07,0.55,0.13,0.83,0.2c2.09,0.52,4.31,1.15,6.36,2.26c7.35,3.99,12.03,12.24,11.9,21.02
						C417.89,80.12,417.18,83.02,416.43,86.08z"/>
				</g>
			</g>
			<path class="st85" d="M426.05,266.64c-0.85,10.67-6.95,20.2-16.01,26.87c-6.21,4.57-14.79,9.11-23.5,6.86
				c-5.24-1.35-9.65-5.14-13.04-9.33c-2.01-2.48-3.8-5.26-4.3-8.24c-1.24-7.36,4.37-16.29,7.71-22.18
				c4.42-7.8,10.07-14.91,17.01-20.75c2.85-2.4,6.09-4.65,10.02-5.05c6.24-0.64,12.63,3.69,16.16,9.04
				C424.43,250.43,426.64,259.31,426.05,266.64z"/>
			<path class="st21" d="M395.29,295.23c0,0-19.59-17.52-19.68-17.59c-0.78-0.7,9.74-9.6,10.54-10.08c2.47-1.47,5.53-2.32,8.56-1.73
				c2.87,0.56,5.41,2.35,7.36,4.46C411.32,280.31,404.29,289.54,395.29,295.23z"/>
			<path class="st85" d="M434.12,199.03c-1.15,10.42-7.09,20.05-15.67,27.07c-5.87,4.81-13.93,9.74-21.87,8.07
				c-4.77-1-8.71-4.42-11.68-8.28c-1.77-2.29-3.32-4.88-3.68-7.75c-0.89-7.08,4.59-16.1,7.86-22.02c4.33-7.84,9.78-15.1,16.37-21.18
				c2.71-2.5,5.77-4.88,9.4-5.51c5.76-1,11.5,2.82,14.56,7.81C433.18,183.37,434.91,191.87,434.12,199.03z"/>
			<path class="st89" d="M401.12,227.48c0,0-14.7-18.69-14.76-18.77c-0.59-0.74,10.47-8.47,11.28-8.86c2.49-1.21,5.4-1.77,8.04-0.93
				c2.5,0.79,4.49,2.75,5.89,4.96C418.2,214.4,410.25,222.75,401.12,227.48z"/>
			<path class="st85" d="M403.61,333.58c-3.84,9.78-13.75,16.41-23.45,21.95c-6.65,3.8-15.32,7.42-22.12,4.76
				c-4.09-1.6-6.76-5.38-8.45-9.47c-1-2.42-1.72-5.1-1.28-7.89c1.08-6.87,8.49-14.73,13.07-19.94c6.05-6.89,12.96-13.08,20.61-18
				c3.14-2.02,6.57-3.88,10.05-3.99c5.53-0.18,11.65,5.99,13.11,11.16C406.94,318.53,406.25,326.87,403.61,333.58z"/>
			<path class="st21" d="M367.65,355.77c0,0-11.72-15.52-11.77-15.58c-0.47-0.62,8.9-8.44,9.59-8.86c2.09-1.29,4.53-2.03,6.7-1.5
				c2.05,0.5,3.65,2.09,4.76,3.96C382.15,342.67,375.34,350.79,367.65,355.77z"/>
		</g>
	</g>
	<g>
		<g>
			<path class="st21" d="M276.75,402.03l-77.63-19.23c-12.77-3.16-20.55-16.08-17.39-28.84l0,0c3.16-12.77,16.08-20.55,28.84-17.39
				l77.63,19.23c12.77,3.16,20.55,16.08,17.39,28.84v0C302.43,397.41,289.52,405.2,276.75,402.03z"/>
		</g>
	</g>
	<g>
		<g>
			<path class="st90" d="M463.4,163.6c-0.02-0.12-0.03-0.23-0.05-0.34c-0.03-0.21-0.06-0.41-0.1-0.62
				c-0.02-0.12-0.05-0.24-0.07-0.36c-0.04-0.2-0.08-0.4-0.13-0.59c-0.03-0.12-0.06-0.23-0.08-0.35c-0.05-0.2-0.11-0.4-0.16-0.6
				c-0.03-0.11-0.06-0.22-0.09-0.32c-0.06-0.21-0.13-0.42-0.21-0.63c-0.03-0.09-0.06-0.18-0.09-0.27c-0.09-0.26-0.19-0.52-0.3-0.78
				c-0.01-0.03-0.02-0.06-0.04-0.1c-0.12-0.3-0.25-0.59-0.39-0.88c-0.01-0.02-0.02-0.05-0.04-0.07c-0.12-0.26-0.25-0.51-0.38-0.76
				c-0.04-0.07-0.08-0.14-0.12-0.22c-0.11-0.2-0.22-0.4-0.34-0.6c-0.05-0.08-0.1-0.17-0.15-0.25c-0.11-0.18-0.23-0.37-0.34-0.55
				c-0.06-0.09-0.11-0.17-0.17-0.25c-0.12-0.18-0.24-0.35-0.37-0.52c-0.06-0.08-0.12-0.16-0.17-0.24c-0.13-0.18-0.27-0.35-0.41-0.53
				c-0.05-0.07-0.11-0.14-0.16-0.21c-0.16-0.19-0.32-0.38-0.49-0.57c-0.04-0.04-0.08-0.09-0.11-0.13c-0.42-0.47-0.86-0.91-1.31-1.34
				c-0.05-0.05-0.1-0.09-0.15-0.13c-0.18-0.16-0.36-0.32-0.54-0.47c-0.08-0.06-0.15-0.13-0.23-0.19c-0.16-0.13-0.32-0.26-0.49-0.39
				c-0.09-0.07-0.18-0.14-0.27-0.2c-0.16-0.12-0.31-0.23-0.47-0.34c-0.1-0.07-0.19-0.14-0.29-0.2c-0.16-0.11-0.32-0.21-0.48-0.31
				c-0.1-0.06-0.2-0.13-0.31-0.19c-0.16-0.1-0.33-0.2-0.5-0.29c-0.1-0.06-0.2-0.12-0.3-0.17c-0.19-0.1-0.37-0.2-0.56-0.3
				c-0.09-0.04-0.17-0.09-0.26-0.14c-0.27-0.13-0.54-0.26-0.82-0.38c-0.12-0.05-0.23-0.1-0.35-0.14c-0.17-0.07-0.33-0.14-0.5-0.2
				c-0.14-0.05-0.29-0.1-0.43-0.16c-0.15-0.05-0.29-0.11-0.44-0.15c-0.15-0.05-0.31-0.1-0.46-0.15c-0.14-0.04-0.28-0.08-0.42-0.12
				c-0.16-0.05-0.33-0.09-0.49-0.13c-0.13-0.03-0.27-0.07-0.4-0.1c-0.17-0.04-0.35-0.08-0.52-0.12c-0.13-0.03-0.25-0.05-0.38-0.07
				c-0.19-0.03-0.37-0.07-0.56-0.1c-0.02,0-0.04-0.01-0.07-0.01c0,0,0,0,0,0c-1.25-0.19-2.54-0.27-3.86-0.22l-223.22,8.49
				c-11.17,0.43-19.88,9.82-19.45,20.99l0.35,9.21l1.02,26.72h0l0.51,13.44l0.05,1.24l0.03,0.89l2.7,71.06
				c0.42,11.17,9.82,19.87,20.99,19.45l9.11-0.35c0,0,0,0,0,0l214.12-8.14c11.17-0.42,19.88-9.82,19.45-20.99l-4.66-122.55
				c-0.01-0.33-0.03-0.66-0.06-0.99c-0.01-0.1-0.02-0.19-0.03-0.29C463.46,164.05,463.43,163.82,463.4,163.6z"/>
			<g>
				<g>
					<g>
						<g>
							<path class="st3" d="M460.62,281.38c0.43,11.17-8.28,20.56-19.45,20.99l-92.21,3.51l-1.95,0.07l-129.07,4.91
								c-11.17,0.43-20.56-8.28-20.99-19.45l-2.7-71.06l-0.03-0.89l-0.05-1.24l-1.88-49.37c-0.43-11.17,8.28-20.56,19.45-20.99
								l223.23-8.49c11.17-0.43,20.56,8.28,20.99,19.45L460.62,281.38z"/>
							
								<rect x="193" y="170" transform="matrix(0.9993 -0.038 0.038 0.9993 -6.7912 12.4812)" class="st91" width="263.86" height="29.78"/>
							<path class="st92" d="M455.96,158.82l4.66,122.55c0.42,11.17-8.28,20.57-19.45,20.99l-214.12,8.14
								c89.54-39.09,163.28-98.83,211.78-170.91C448.22,141.03,455.58,148.97,455.96,158.82z"/>
							
								<rect x="207.73" y="212.73" transform="matrix(0.9993 -0.038 0.038 0.9993 -8.3776 11.4851)" class="st12" width="180.42" height="26.78"/>
							<g>
								<g>
									<g>
										<path class="st93" d="M224.12,277.15c1.17-0.04,2.34-0.09,3.51-0.13c3.15-0.12,6.3-0.23,9.45-0.35
											c4.67-0.17,9.34-0.34,14.02-0.51c5.7-0.21,11.4-0.42,17.1-0.62c6.22-0.23,12.44-0.45,18.66-0.68
											c6.32-0.23,12.65-0.46,18.97-0.69c5.86-0.21,11.71-0.43,17.57-0.64c4.97-0.18,9.93-0.36,14.9-0.54
											c3.57-0.13,7.14-0.26,10.71-0.39c1.69-0.06,3.38-0.11,5.06-0.18c0.07,0,0.15-0.01,0.22-0.01
											c1.93-0.07,3.71-1.83,3.55-3.82c-0.16-1.99-1.75-3.62-3.82-3.55c-1.17,0.04-2.34,0.09-3.51,0.13
											c-3.15,0.12-6.3,0.23-9.45,0.35c-4.67,0.17-9.34,0.34-14.02,0.51c-5.7,0.21-11.4,0.42-17.1,0.62
											c-6.22,0.23-12.44,0.45-18.66,0.68c-6.32,0.23-12.65,0.46-18.97,0.69c-5.86,0.21-11.71,0.43-17.57,0.64
											c-4.97,0.18-9.93,0.36-14.9,0.54c-3.57,0.13-7.14,0.26-10.71,0.39c-1.69,0.06-3.38,0.11-5.06,0.18
											c-0.07,0-0.15,0.01-0.22,0.01c-1.93,0.07-3.71,1.83-3.55,3.82C220.47,275.6,222.06,277.23,224.12,277.15L224.12,277.15z"
											/>
									</g>
								</g>
								<g>
									<g>
										<path class="st93" d="M300.22,292.34c1.2-0.04,2.41-0.09,3.61-0.13c2.89-0.11,5.78-0.21,8.67-0.32
											c3.5-0.13,6.99-0.26,10.49-0.38c3.02-0.11,6.05-0.22,9.07-0.33c1.47-0.05,2.95-0.08,4.42-0.16c0.02,0,0.04,0,0.06,0
											c1.93-0.07,3.71-1.83,3.55-3.82c-0.16-1.99-1.75-3.62-3.82-3.55c-1.2,0.04-2.41,0.09-3.61,0.13
											c-2.89,0.11-5.78,0.21-8.67,0.32c-3.5,0.13-6.99,0.26-10.49,0.38c-3.02,0.11-6.05,0.22-9.07,0.33
											c-1.47,0.05-2.95,0.08-4.42,0.16c-0.02,0-0.04,0-0.06,0c-1.93,0.07-3.71,1.83-3.55,3.82
											C296.57,290.78,298.16,292.42,300.22,292.34L300.22,292.34z"/>
									</g>
								</g>
								<g>
									<g>
										<path class="st93" d="M224.78,295.1c1.77-0.06,3.53-0.13,5.3-0.19c4.24-0.15,8.48-0.31,12.73-0.46
											c5.11-0.19,10.22-0.37,15.33-0.56c4.42-0.16,8.83-0.32,13.25-0.48c2.15-0.08,4.3-0.12,6.45-0.24c0.03,0,0.06,0,0.09,0
											c1.93-0.07,3.71-1.83,3.55-3.82c-0.16-1.99-1.75-3.62-3.82-3.55c-1.77,0.06-3.53,0.13-5.3,0.19
											c-4.24,0.15-8.48,0.31-12.73,0.46c-5.11,0.19-10.22,0.37-15.33,0.56c-4.42,0.16-8.84,0.32-13.25,0.48
											c-2.15,0.08-4.3,0.12-6.45,0.24c-0.03,0-0.06,0-0.09,0c-1.93,0.07-3.71,1.83-3.55,3.82
											C221.12,293.54,222.71,295.17,224.78,295.1L224.78,295.1z"/>
									</g>
								</g>
							</g>
						</g>
						<g>
							<path class="st91" d="M346.31,224.27c0.57-0.62,1.14-1.23,1.72-1.85c0.3-0.32,0.6-0.65,0.9-0.97
								c0.53-0.57,0.54-1.59-0.08-2.11c-0.62-0.53-1.55-0.53-2.12,0.08c-0.87,0.94-1.75,1.88-2.62,2.82
								c-0.62-0.57-1.23-1.14-1.85-1.72c-0.32-0.3-0.65-0.6-0.97-0.9c-0.57-0.53-1.59-0.54-2.12,0.08
								c-0.53,0.62-0.53,1.55,0.08,2.11c0.94,0.87,1.88,1.75,2.82,2.62c-0.57,0.62-1.14,1.23-1.72,1.85c-0.3,0.32-0.6,0.65-0.9,0.97
								c-0.53,0.57-0.54,1.59,0.08,2.12c0.62,0.53,1.55,0.53,2.12-0.08c0.87-0.94,1.75-1.88,2.62-2.82
								c0.62,0.57,1.23,1.14,1.85,1.72c0.32,0.3,0.65,0.6,0.97,0.9c0.57,0.53,1.59,0.54,2.12-0.08c0.53-0.62,0.53-1.55-0.08-2.12
								C348.2,226.02,347.26,225.14,346.31,224.27z"/>
							<path class="st91" d="M359.47,223.78c0.57-0.62,1.14-1.23,1.72-1.85c0.3-0.32,0.6-0.65,0.9-0.97
								c0.53-0.57,0.54-1.59-0.08-2.12c-0.62-0.53-1.55-0.53-2.12,0.08c-0.87,0.94-1.75,1.88-2.62,2.82
								c-0.62-0.57-1.23-1.14-1.85-1.72c-0.32-0.3-0.65-0.6-0.97-0.9c-0.57-0.53-1.59-0.54-2.12,0.08
								c-0.53,0.62-0.53,1.55,0.08,2.12c0.94,0.87,1.88,1.75,2.82,2.62c-0.57,0.62-1.14,1.23-1.72,1.85c-0.3,0.32-0.6,0.65-0.9,0.97
								c-0.53,0.57-0.54,1.59,0.08,2.12c0.62,0.53,1.55,0.53,2.12-0.08c0.87-0.94,1.75-1.88,2.62-2.82
								c0.62,0.57,1.23,1.14,1.85,1.72c0.32,0.3,0.65,0.6,0.97,0.9c0.57,0.53,1.59,0.54,2.12-0.08c0.53-0.62,0.53-1.55-0.08-2.12
								C361.35,225.53,360.41,224.65,359.47,223.78z"/>
							<path class="st91" d="M372.63,223.29c0.57-0.62,1.14-1.23,1.72-1.85c0.3-0.32,0.6-0.65,0.9-0.97
								c0.53-0.57,0.54-1.59-0.08-2.12c-0.62-0.53-1.55-0.53-2.12,0.08c-0.87,0.94-1.75,1.88-2.62,2.82
								c-0.62-0.57-1.23-1.14-1.85-1.72c-0.32-0.3-0.65-0.6-0.97-0.9c-0.57-0.53-1.59-0.54-2.12,0.08
								c-0.53,0.62-0.53,1.55,0.08,2.12c0.94,0.87,1.88,1.75,2.82,2.62c-0.57,0.62-1.14,1.23-1.72,1.85c-0.3,0.32-0.6,0.65-0.9,0.97
								c-0.53,0.57-0.54,1.59,0.08,2.12c0.62,0.53,1.55,0.53,2.12-0.08c0.87-0.94,1.75-1.88,2.62-2.82
								c0.62,0.57,1.23,1.14,1.85,1.72c0.32,0.3,0.65,0.6,0.97,0.9c0.57,0.53,1.59,0.54,2.11-0.08c0.53-0.62,0.53-1.55-0.08-2.12
								C374.51,225.04,373.57,224.16,372.63,223.29z"/>
						</g>
					</g>
					<g>
						
							<ellipse transform="matrix(0.904 -0.4276 0.4276 0.904 -77.3391 202.8497)" class="st92" cx="412.93" cy="273.6" rx="15.95" ry="15.95"/>
						
							<ellipse transform="matrix(0.6803 -0.733 0.733 0.6803 -61.9327 403.814)" class="st94" cx="431.89" cy="272.9" rx="15.95" ry="15.95"/>
					</g>
				</g>
			</g>
		</g>
		<g>
			<path class="st12" d="M431.31,238.17c-0.05,0.27-0.02,0.54,0.06,0.81c0.14,0.47,0.49,0.97,0.91,1.18
				c0.45,0.23,0.98,0.34,1.46,0.15c0.15-0.07,0.29-0.15,0.44-0.22c0.28-0.19,0.49-0.44,0.65-0.76c1.31-2.04,2.42-4.23,3.25-6.54
				c0.87-2.43,1.51-4.94,1.78-7.54c0.27-2.64,0.27-5.28-0.12-7.9c-0.39-2.6-1.04-5.13-2.04-7.54c-1-2.42-2.23-4.7-3.74-6.79
				c-0.18-0.25-0.36-0.49-0.54-0.73c-0.13-0.23-0.3-0.42-0.51-0.55c-0.19-0.17-0.41-0.29-0.65-0.34c-0.45-0.12-1.05-0.03-1.44,0.26
				c-0.39,0.3-0.73,0.73-0.82,1.25c-0.09,0.5-0.07,1.15,0.25,1.56c1.19,1.57,2.26,3.26,3.15,5.05c0.23,0.45,0.44,0.9,0.64,1.36
				c0.87,2.08,1.52,4.26,1.91,6.5c0.34,2.22,0.42,4.47,0.26,6.71c-0.22,2.27-0.7,4.5-1.41,6.64c-0.64,1.81-1.45,3.55-2.4,5.2
				c-0.29,0.5-0.59,0.99-0.9,1.47C431.38,237.65,431.31,237.9,431.31,238.17z"/>
			<path class="st12" d="M424.01,234.95c-0.05,0.27-0.02,0.54,0.06,0.81c0.14,0.47,0.49,0.97,0.91,1.18
				c0.45,0.23,0.98,0.34,1.46,0.15c0.15-0.07,0.29-0.15,0.44-0.22c0.28-0.19,0.49-0.44,0.65-0.76c1.05-1.63,1.93-3.38,2.6-5.23
				c0.71-1.98,1.24-4.02,1.46-6.15c0.22-2.14,0.23-4.29-0.09-6.42c-0.32-2.12-0.83-4.17-1.65-6.13c-0.82-1.96-1.8-3.82-3.03-5.52
				c-0.14-0.2-0.29-0.39-0.43-0.59c-0.13-0.23-0.3-0.42-0.51-0.55c-0.19-0.17-0.41-0.29-0.65-0.34c-0.25-0.08-0.5-0.08-0.75-0.01
				c-0.25,0.02-0.48,0.11-0.69,0.27c-0.39,0.3-0.73,0.73-0.82,1.25c-0.02,0.18-0.03,0.36-0.05,0.54c0.02,0.37,0.11,0.71,0.3,1.02
				c1.17,1.55,2.18,3.23,2.99,5.03c0.69,1.65,1.21,3.38,1.52,5.16c0.26,1.73,0.33,3.5,0.2,5.24c-0.18,1.8-0.56,3.56-1.12,5.26
				c-0.67,1.85-1.55,3.61-2.6,5.24C424.08,234.42,424.01,234.68,424.01,234.95z"/>
			<path class="st12" d="M420.23,232.89c0.79-1.22,1.45-2.54,1.95-3.93c0.55-1.53,0.97-3.08,1.13-4.71c0.17-1.65,0.19-3.3-0.06-4.95
				c-0.24-1.63-0.62-3.2-1.25-4.72c-0.7-1.7-1.57-3.28-2.66-4.73c-0.13-0.23-0.3-0.42-0.51-0.55c-0.19-0.17-0.41-0.29-0.65-0.34
				c-0.25-0.08-0.5-0.08-0.75-0.01c-0.25,0.02-0.48,0.11-0.69,0.27c-0.39,0.3-0.73,0.73-0.82,1.25c-0.02,0.18-0.03,0.36-0.05,0.54
				c0.01,0.37,0.11,0.71,0.3,1.02c0.87,1.15,1.62,2.39,2.22,3.72c0.5,1.2,0.87,2.45,1.1,3.73c0.18,1.26,0.23,2.53,0.14,3.8
				c-0.13,1.3-0.41,2.58-0.81,3.81c-0.5,1.37-1.15,2.67-1.93,3.88c-0.13,0.24-0.19,0.49-0.19,0.76c-0.05,0.27-0.02,0.54,0.06,0.81
				c0.14,0.47,0.49,0.97,0.91,1.18c0.45,0.23,0.98,0.34,1.46,0.15c0.15-0.07,0.29-0.15,0.44-0.22
				C419.86,233.45,420.07,233.2,420.23,232.89z"/>
			<path class="st12" d="M410.59,218.19c0.3,0.75,0.53,1.52,0.68,2.32c0.11,0.78,0.14,1.56,0.09,2.35c-0.09,0.81-0.26,1.6-0.5,2.36
				c-0.33,0.89-0.75,1.72-1.26,2.51c-0.13,0.24-0.19,0.49-0.19,0.76c-0.05,0.27-0.02,0.54,0.06,0.81c0.14,0.47,0.49,0.97,0.91,1.18
				c0.45,0.23,0.98,0.34,1.46,0.15c0.15-0.07,0.29-0.15,0.44-0.22c0.28-0.19,0.49-0.44,0.65-0.76c0.53-0.82,0.97-1.7,1.31-2.64
				c0.38-1.07,0.69-2.16,0.81-3.31c0.12-1.17,0.15-2.32-0.03-3.48c-0.17-1.15-0.42-2.26-0.87-3.32c-0.49-1.18-1.07-2.29-1.83-3.3
				c-0.13-0.23-0.3-0.42-0.51-0.55c-0.19-0.17-0.41-0.29-0.65-0.34c-0.25-0.08-0.5-0.08-0.75-0.01c-0.25,0.02-0.48,0.11-0.69,0.27
				c-0.39,0.3-0.73,0.73-0.82,1.25c-0.02,0.18-0.03,0.36-0.05,0.54c0.02,0.37,0.11,0.71,0.3,1.02
				C409.71,216.53,410.2,217.34,410.59,218.19z"/>
		</g>
	</g>
	<g id="BlBenB_1_">
		<g>
			<path class="st0" d="M309.32,93.15c-4.38,5.52-8.76,11.04-13.17,16.54c-0.64,0.79-1.44,1.45-2.19,2.14
				c-2.21,2.05-4.67,2.79-7.75,2.15c-6.26-1.3-12.59-2.31-18.88-3.48c-5.22-0.97-9.36-3.47-11.57-8.54c-1.2-2.76-1.05-5.7-1.1-8.6
				c-0.15-7.71-0.27-15.43-0.44-23.14c-0.08-3.87-1.12-5.26-4.87-6.13c-2.36-0.54-3.88-1.68-4.28-4.12c0.09-0.5,0.18-1.01,0.27-1.51
				c1.43-2.28,3.41-2.68,5.95-2.07c6.7,1.61,10.59,6.14,10.78,13.06c0.23,8.83,0.36,17.67,0.51,26.5c0.06,3.72,1.65,5.86,5.33,6.58
				c6.48,1.28,12.98,2.43,19.48,3.55c0.57,0.1,1.45-0.21,1.85-0.64c2.68-2.95,5.31-5.94,7.86-9c1.63-1.96,3.14-4.03,4.62-6.12
				c1.15-1.62,2.49-2.76,4.6-2.33c2.11,0.43,2.95,2,3.25,3.96C309.46,92.35,309.39,92.75,309.32,93.15z"/>
			<path class="st0" d="M283.95,129.78c-2.29-1.34-4.06-3.04-4.24-5.91c-0.23-3.62,2.34-6.58,6.05-6.96
				c3.4-0.35,6.56,2.19,7.01,5.63c0.46,3.56-1.87,6.76-5.37,7.37c-0.44,0.08-0.89,0.17-1.33,0.25
				C285.36,130.04,284.65,129.91,283.95,129.78z"/>
			<path class="st0" d="M260.36,125.51c-0.32-0.22-0.64-0.47-0.97-0.67c-2.78-1.68-3.96-4.98-2.82-7.95
				c1.18-3.08,4.27-4.79,7.48-4.15c3.02,0.6,5.31,3.43,5.25,6.48c-0.07,3.3-2.39,5.96-5.63,6.47c-0.4,0.06-0.79,0.14-1.19,0.21
				C261.77,125.77,261.07,125.64,260.36,125.51z"/>
			<path class="st0" d="M277.18,77.34c0.86-3.47,1.74-6.73,2.47-10.02c0.33-1.53,1.15-2.21,2.63-2.18c0.91,0.02,1.84,0.02,2.74,0.19
				c3.24,0.62,3.9,1.58,3.49,4.79c-0.37,2.94-0.69,5.88-1.06,9.07c1.75,0.32,3.45,0.55,5.11,0.96c0.66,0.16,1.57,0.61,1.73,1.13
				c0.16,0.51-0.32,1.47-0.81,1.88c-4.15,3.4-8.36,6.72-12.56,10.06c-1.02,0.81-1.91,0.6-2.56-0.49c-2.8-4.63-5.61-9.26-8.33-13.94
				c-0.3-0.51-0.34-1.53-0.02-1.94c0.31-0.4,1.26-0.51,1.89-0.44C273.6,76.62,275.3,77,277.18,77.34z"/>
		</g>
	</g>
</g>
<g>
	<g>
		<defs>
			<rect id="SVGID_00000127754654116146332700000000922346590849140627_" x="535.83" y="1.83" width="510.35" height="510.35"/>
		</defs>
		<clipPath id="SVGID_00000084496749192483261920000008776026940327400108_">
			<use xlink:href="#SVGID_00000127754654116146332700000000922346590849140627_"  style="overflow:visible;"/>
		</clipPath>
		<g style="clip-path:url(#SVGID_00000084496749192483261920000008776026940327400108_);">
			<g>
				<g>
					<path class="st0" d="M535.19,471.27c0,0,10.96,23.45,41.79,37.69l-4.16,6.65l-65.7,0.93l-0.23-16.18L535.19,471.27z"/>
				</g>
			</g>
		</g>
	</g>
</g>
</svg>
