<?xml version="1.0" encoding="utf-8"?>
<!-- Generator: Adobe Illustrator 26.0.1, SVG Export Plug-In . SVG Version: 6.00 Build 0)  -->
<svg version="1.1" id="Capa_1" xmlns="http://www.w3.org/2000/svg" xmlns:xlink="http://www.w3.org/1999/xlink" x="0px" y="0px"
	 viewBox="0 0 512 512" style="enable-background:new 0 0 512 512;" xml:space="preserve">
<style type="text/css">
	.st0{fill:#FF5408;}
	.st1{fill:#FF671D;}
	.st2{fill:#9D1D96;}
	.st3{fill:#1A428A;}
	.st4{fill:#F6A98F;}
	.st5{fill:#3C3C3B;}
	.st6{fill:#575756;}
	.st7{fill:#FCFAFA;}
	.st8{fill:#4569AF;}
	.st9{fill:#FBC19D;}
	.st10{fill:#ECECEC;}
	.st11{fill:url(#SVGID_1_);}
	.st12{fill:#FFFFFF;}
	.st13{fill:url(#SVGID_00000011730746280589483170000011942181981796771728_);}
	.st14{fill:url(#SVGID_00000109716780012170098070000002317728769802884543_);}
	.st15{fill:url(#SVGID_00000182517049996765804180000000148082997029242256_);}
	.st16{fill-rule:evenodd;clip-rule:evenodd;fill:#FF1753;}
	.st17{fill-rule:evenodd;clip-rule:evenodd;fill:#FFFFFF;}
	.st18{fill-rule:evenodd;clip-rule:evenodd;fill:#00C9D0;}
	.st19{fill:#B2B1B1;}
	.st20{fill:#B7B6B6;}
	.st21{fill:#B20098;}
	.st22{fill:#51504F;}
	.st23{fill:#4474BC;}
	.st24{opacity:0.33;fill:#FFFFFF;}
	.st25{fill:#E01717;}
	.st26{fill:#EDEBEB;}
	.st27{opacity:0.37;}
	.st28{fill:#F487E9;}
	.st29{fill:#E849E1;}
	.st30{fill:#CE1BBD;}
	.st31{fill:#A0C0E0;}
	.st32{fill:#5E8ABF;}
	.st33{fill:#3865A5;}
	.st34{fill:#F4CBBE;}
	.st35{fill:#F4B098;}
	.st36{fill:#F77F4F;}
	.st37{fill:url(#SVGID_00000167377660430137327470000012690279556660678319_);}
	.st38{fill:url(#SVGID_00000089556421571782744100000007181132190089117353_);}
	.st39{fill:url(#SVGID_00000043425307864985241620000001358839447412750478_);}
	.st40{fill:url(#SVGID_00000181769510808934573870000009769167348208996543_);}
	.st41{fill:url(#SVGID_00000132068933414419174130000009351326160722699657_);}
	.st42{fill:#FF5500;}
	.st43{fill:url(#SVGID_00000042709162204065894420000011059094630775486375_);}
	.st44{fill:url(#SVGID_00000111191113045975558160000009889625303622414760_);}
	.st45{fill:url(#SVGID_00000178170241875670836550000017366560024707493542_);}
	.st46{fill:url(#SVGID_00000034780899608170412640000015114309504959366534_);}
	.st47{fill:url(#SVGID_00000180334966509971154230000005504615115740818821_);}
	.st48{clip-path:url(#SVGID_00000101790607182811633310000008271644848002784154_);}
	.st49{fill-rule:evenodd;clip-rule:evenodd;fill:#5B1803;}
	.st50{fill:#E58A76;}
	.st51{fill:#F9AD95;}
	.st52{fill:#5B1803;}
	.st53{fill:#E2EBED;}
	.st54{fill:#F4BCB0;}
	.st55{fill-rule:evenodd;clip-rule:evenodd;fill:#F9C6B9;}
	.st56{fill:#232121;}
	.st57{fill-rule:evenodd;clip-rule:evenodd;fill:#B20098;}
	.st58{fill-rule:evenodd;clip-rule:evenodd;fill:url(#SVGID_00000027582646667038163800000013373568999913735606_);}
	.st59{fill-rule:evenodd;clip-rule:evenodd;fill:url(#SVGID_00000071555790487433694970000001225861739478918036_);}
	.st60{fill:#1D3751;}
	.st61{fill:#20346D;}
	.st62{fill:url(#SVGID_00000106115649976922148730000012010483901058945693_);}
	.st63{fill-rule:evenodd;clip-rule:evenodd;fill:url(#SVGID_00000125561239021357244240000007826555088636900515_);}
	.st64{fill-rule:evenodd;clip-rule:evenodd;fill:url(#SVGID_00000017510579713526475360000011384927290154192822_);}
	.st65{fill:#7A066F;}
	.st66{fill:url(#SVGID_00000156578288532560365780000015882138189867175300_);}
	.st67{fill:#11162A;}
	.st68{fill:#2A599E;}
	.st69{fill:#002133;}
	.st70{fill:#FFFEFF;}
	.st71{fill:#617478;}
	.st72{opacity:0.67;}
	.st73{opacity:0.15;}
	.st74{fill:#F0F1F2;}
	.st75{fill:#0086B5;}
	.st76{fill:#FFF69D;}
	.st77{fill:#484849;}
	.st78{fill:#EA7A00;}
	.st79{fill:#525251;}
	.st80{fill:#701E43;}
	.st81{fill:#FDF4F9;}
	.st82{fill:#F28E0F;}
	.st83{fill:#E25028;}
	.st84{fill:#EFEFEF;}
	.st85{fill:#FFB48C;}
	.st86{fill:#F19F77;}
	.st87{fill:#353534;}
	.st88{fill:#1F1F1F;}
	.st89{fill:#E9E9E9;}
	.st90{fill:#C9C9C9;}
	.st91{fill:#2C2C2B;}
	.st92{opacity:0.12;fill:#FFFFFF;}
	.st93{fill:#00A4DD;}
	.st94{fill:#DCDCDC;}
	.st95{fill:none;stroke:#FFFFFF;stroke-width:4;stroke-linecap:round;stroke-linejoin:round;}
	.st96{fill:none;stroke:#FFFFFF;stroke-width:4;stroke-linecap:round;stroke-linejoin:round;stroke-dasharray:0.2512,8.0389;}
	.st97{fill:#BBE2F9;}
	.st98{fill:#C6C6C6;}
	.st99{fill:#0080C6;}
	.st100{fill:#FFF2DB;}
	.st101{fill:#930386;}
	.st102{fill:#31241C;}
	.st103{fill:#EA9363;}
	.st104{opacity:0.15;fill:#AB5D2D;}
	.st105{fill:#1A191F;}
	.st106{fill:#1F0E03;}
	.st107{fill:#49687A;}
	.st108{fill:#F5CDB3;}
	.st109{clip-path:url(#SVGID_00000095334269641615483160000004566572267490271365_);}
	.st110{fill:#F86E3C;}
	.st111{opacity:0.6;fill:#FFD045;}
	.st112{clip-path:url(#SVGID_00000095334269641615483160000004566572267490271365_);fill:#B20098;}
	.st113{clip-path:url(#XMLID_00000065065724976290283780000011132183715941152158_);fill:#1A428A;}
	.st114{clip-path:url(#XMLID_00000050648242814990839400000015969256992811355523_);fill:#1A428A;}
	.st115{clip-path:url(#SVGID_00000067202983452182373050000001637417608765274293_);}
	.st116{fill:#D19E7B;}
	.st117{opacity:0.2;clip-path:url(#XMLID_00000111887874777343642410000005295399283548441528_);fill:#96A8B4;}
	.st118{fill:#496870;}
	.st119{opacity:0.4;fill:#FFFFFF;}
	.st120{fill:none;stroke:#1B424C;stroke-width:26;stroke-miterlimit:10;}
	.st121{fill:#FFBC99;}
	.st122{opacity:0.5;fill:#FFFFFF;}
	.st123{opacity:0.2;clip-path:url(#XMLID_00000115495328076241535980000012113508313278301069_);fill:#96A8B4;}
</style>
<g>
	<g>
		<g>
			<path class="st67" d="M466.3,416.03c0,14.64-10.93,26.5-24.4,26.5H64.53c-13.48,0-24.41-11.87-24.41-26.5V183.94
				c0-14.63,10.93-26.5,24.41-26.5H441.9c13.48,0,24.4,11.87,24.4,26.5V416.03z"/>
			<rect x="61.94" y="181.44" class="st68" width="381.82" height="224"/>
			<g>
				<path class="st69" d="M9.54,417.81c-3.06,0-5.54,2.48-5.54,5.54l0,0c0,11.8,12.92,21.37,28.86,21.37h446.27
					c15.94,0,28.86-9.57,28.86-21.37l0,0c0-3.06-2.48-5.54-5.54-5.54H9.54z"/>
				<path class="st70" d="M8.25,417.81c-2.35,0-4.25,1.9-4.25,4.25v1.29c0,3.8,1.36,7.37,3.71,10.46h496.59
					c2.35-3.09,3.71-6.65,3.71-10.46v-1.29c0-2.35-1.9-4.25-4.25-4.25H8.25z"/>
				<path class="st71" d="M292.36,429.44h-72.73c-1.41,0-2.55-1.14-2.55-2.55l0,0c0-1.41,1.14-2.55,2.55-2.55h72.73
					c1.41,0,2.55,1.14,2.55,2.55l0,0C294.91,428.3,293.77,429.44,292.36,429.44z"/>
			</g>
			<g class="st72">
				<polygon class="st3" points="222.86,181.44 61.94,342.36 61.94,405.44 91.57,405.44 315.57,181.44 				"/>
				<polygon class="st3" points="116.65,181.44 61.94,236.16 61.94,277.56 158.06,181.44 				"/>
				<polygon class="st3" points="401.07,181.44 177.08,405.44 213.98,405.44 437.98,181.44 				"/>
				<polygon class="st3" points="443.76,247.67 285.98,405.44 338.19,405.44 443.76,299.87 				"/>
			</g>
		</g>
	</g>
	<g>
		<path class="st73" d="M480.36,232.27h-1.2H327.13h-1.2c-2.62,0-4.74,2.12-4.74,4.74v1.2v6.66v152.79c0,3.28,2.66,5.94,5.94,5.94
			h152.04c3.28,0,5.94-2.66,5.94-5.94V244.87v-6.66v-1.2C485.1,234.39,482.98,232.27,480.36,232.27z"/>
		<g>
			<path class="st74" d="M486.67,394.66H334.63c-3.28,0-5.94-2.66-5.94-5.94V229.26c0-3.28,2.66-5.94,5.94-5.94h152.04
				c3.28,0,5.94,2.66,5.94,5.94v159.45C492.61,392,489.95,394.66,486.67,394.66z"/>
			<g>
				<path class="st75" d="M492.61,235.93H328.69v-7.86c0-2.62,2.12-4.74,4.74-4.74h154.43c2.62,0,4.74,2.12,4.74,4.74V235.93z"/>
				<g>
					<path class="st76" d="M340.66,229.63c0-1.55-1.26-2.81-2.81-2.81c-1.55,0-2.81,1.26-2.81,2.81c0,1.55,1.26,2.81,2.81,2.81
						C339.4,232.44,340.66,231.18,340.66,229.63z"/>
					<path class="st76" d="M350.46,229.63c0-1.55-1.26-2.81-2.81-2.81c-1.55,0-2.81,1.26-2.81,2.81c0,1.55,1.26,2.81,2.81,2.81
						C349.2,232.44,350.46,231.18,350.46,229.63z"/>
					<path class="st76" d="M360.27,229.63c0-1.55-1.26-2.81-2.81-2.81c-1.55,0-2.81,1.26-2.81,2.81c0,1.55,1.26,2.81,2.81,2.81
						C359.01,232.44,360.27,231.18,360.27,229.63z"/>
				</g>
			</g>
			<g>
				<path class="st1" d="M372.97,253.16h-28.26c-1.64,0-2.97-1.33-2.97-2.97l0,0c0-1.64,1.33-2.97,2.97-2.97h28.26
					c1.64,0,2.97,1.33,2.97,2.97l0,0C375.94,251.83,374.61,253.16,372.97,253.16z"/>
				<path class="st77" d="M476.59,253.16h-89.24c-1.64,0-2.97-1.33-2.97-2.97l0,0c0-1.64,1.33-2.97,2.97-2.97h89.24
					c1.64,0,2.97,1.33,2.97,2.97l0,0C479.56,251.83,478.23,253.16,476.59,253.16z"/>
			</g>
			<g>
				<g>
					<path class="st3" d="M351.55,270.56c0-2.65-2.15-4.8-4.8-4.8s-4.8,2.15-4.8,4.8c0,2.65,2.15,4.8,4.8,4.8
						S351.55,273.21,351.55,270.56z"/>
					<path class="st3" d="M351.55,285.71c0-2.65-2.15-4.8-4.8-4.8s-4.8,2.15-4.8,4.8c0,2.65,2.15,4.8,4.8,4.8
						S351.55,288.36,351.55,285.71z"/>
					<path class="st3" d="M351.55,300.86c0-2.65-2.15-4.8-4.8-4.8s-4.8,2.15-4.8,4.8s2.15,4.8,4.8,4.8S351.55,303.51,351.55,300.86z
						"/>
				</g>
				<g>
					<path class="st77" d="M416.8,272.88h-57.86c-1.28,0-2.33-1.04-2.33-2.33l0,0c0-1.28,1.04-2.33,2.33-2.33h57.86
						c1.28,0,2.33,1.04,2.33,2.33l0,0C419.13,271.84,418.08,272.88,416.8,272.88z"/>
					<path class="st77" d="M416.8,288.04h-57.86c-1.28,0-2.33-1.04-2.33-2.33l0,0c0-1.28,1.04-2.33,2.33-2.33h57.86
						c1.28,0,2.33,1.04,2.33,2.33l0,0C419.13,286.99,418.08,288.04,416.8,288.04z"/>
					<path class="st77" d="M416.8,303.19h-57.86c-1.28,0-2.33-1.04-2.33-2.33l0,0c0-1.28,1.04-2.33,2.33-2.33h57.86
						c1.28,0,2.33,1.04,2.33,2.33l0,0C419.13,302.15,418.08,303.19,416.8,303.19z"/>
				</g>
				<path class="st2" d="M476.53,303.19h-44.75c-1.56,0-2.83-1.27-2.83-2.83v-29.3c0-1.56,1.27-2.83,2.83-2.83h44.75
					c1.56,0,2.83,1.27,2.83,2.83v29.3C479.36,301.92,478.09,303.19,476.53,303.19z"/>
			</g>
			<g>
				<path class="st2" d="M470.35,348.87H350.95c-1.24,0-2.25-1.01-2.25-2.25l0,0c0-1.24,1.01-2.25,2.25-2.25h119.41
					c1.24,0,2.25,1.01,2.25,2.25l0,0C472.6,347.86,471.6,348.87,470.35,348.87z"/>
				<path class="st2" d="M470.35,357.9H350.95c-1.24,0-2.25-1.01-2.25-2.25l0,0c0-1.24,1.01-2.25,2.25-2.25h119.41
					c1.24,0,2.25,1.01,2.25,2.25l0,0C472.6,356.9,471.6,357.9,470.35,357.9z"/>
				<path class="st2" d="M470.35,366.94H350.95c-1.24,0-2.25-1.01-2.25-2.25l0,0c0-1.24,1.01-2.25,2.25-2.25h119.41
					c1.24,0,2.25,1.01,2.25,2.25l0,0C472.6,365.94,471.6,366.94,470.35,366.94z"/>
				<path class="st2" d="M471.2,375.98H350.1c-0.77,0-1.4-0.63-1.4-1.4v-1.7c0-0.77,0.63-1.4,1.4-1.4h121.1c0.77,0,1.4,0.63,1.4,1.4
					v1.7C472.6,375.36,471.98,375.98,471.2,375.98z"/>
			</g>
			<path class="st1" d="M452.4,335.12h-83.5c-3.62,0-6.55-2.93-6.55-6.55l0,0c0-3.62,2.93-6.55,6.55-6.55h83.5
				c3.62,0,6.55,2.93,6.55,6.55l0,0C458.95,332.19,456.02,335.12,452.4,335.12z"/>
		</g>
	</g>
	<g>
		<path class="st73" d="M301.18,76.22h-0.38h-2.82H84.8h-2.82H81.6c-5.15,0-9.32,4.17-9.32,9.32v3.2v11.57V355.1
			c0,3.94,3.19,7.14,7.14,7.14h223.94c3.94,0,7.14-3.19,7.14-7.14V100.31V88.74v-3.2C310.49,80.39,306.32,76.22,301.18,76.22z"/>
		<g>
			<path class="st78" d="M310.87,353.29H86.93c-3.94,0-7.14-3.19-7.14-7.14V79.8c0-6.91,5.6-12.52,12.52-12.52h213.17
				c6.91,0,12.52,5.6,12.52,12.52v266.36C318,350.1,314.81,353.29,310.87,353.29z"/>
			<path class="st12" d="M302.52,344.89H95.28c-3.2,0-5.79-2.59-5.79-5.79V67.28H308.3V339.1
				C308.3,342.3,305.71,344.89,302.52,344.89z"/>
			<path class="st79" d="M318,91.37H79.79V76.6c0-5.15,4.17-9.32,9.32-9.32h219.57c5.15,0,9.32,4.17,9.32,9.32V91.37z"/>
			<g>
				<path class="st12" d="M100.68,219.31c-0.36-0.41-0.36-1.03,0-1.44l4.67-5.35l3.37-3.87c0.66-0.76,1.92-0.29,1.92,0.72v9.23v9.23
					c0,1.01-1.25,1.48-1.92,0.72l-3.37-3.87L100.68,219.31z"/>
				<path class="st12" d="M297.11,217.87c0.36,0.41,0.36,1.03,0,1.44l-4.67,5.36l-3.37,3.87c-0.66,0.76-1.92,0.29-1.92-0.72v-9.23
					v-9.23c0-1.01,1.25-1.48,1.92-0.72l3.37,3.87L297.11,217.87z"/>
			</g>
			<g>
				<g>
					<path class="st80" d="M160.76,235.01h-35.31c-2.6,0-4.71-2.11-4.71-4.71v-44.49c0-2.6,2.11-4.71,4.71-4.71h35.31
						c2.6,0,4.71,2.11,4.71,4.71v44.49C165.48,232.9,163.37,235.01,160.76,235.01z"/>
					<path class="st2" d="M151.55,196.54c0.02,1.96,0,17.64-13.94,4.9c-13.81-12.63-16.81,28.18-16.86,28.88
						c0.01,2.59,2.12,4.69,4.71,4.69h20.75l15.52-0.1c1.93-0.4,3.4-1.98,3.68-3.95l0.07-40.8
						C155.95,179.88,151.5,191.03,151.55,196.54z"/>
				</g>
				<g>
					<path class="st81" d="M216.55,235.01h-35.31c-2.6,0-4.71-2.11-4.71-4.71v-44.49c0-2.6,2.11-4.71,4.71-4.71h35.31
						c2.6,0,4.71,2.11,4.71,4.71v44.49C221.26,232.9,219.15,235.01,216.55,235.01z"/>
					<path class="st2" d="M176.53,185.82v44.49c0,2.6,2.11,4.71,4.71,4.71h35.31c1.37,0,2.59-0.59,3.45-1.52l-42.21-50.87
						C177.01,183.46,176.53,184.58,176.53,185.82z"/>
					<polygon class="st3" points="215.74,228.37 183.48,189.44 215.78,189.43 					"/>
				</g>
				<g>
					<path class="st81" d="M272.33,235.01h-35.31c-2.6,0-4.71-2.11-4.71-4.71v-44.49c0-2.6,2.11-4.71,4.71-4.71h35.31
						c2.6,0,4.71,2.11,4.71,4.71v44.49C277.05,232.9,274.94,235.01,272.33,235.01z"/>
					<g>
						<path class="st3" d="M263.36,215.73c0,6.88-5.54,12.45-12.38,12.45c-6.84,0-12.38-5.58-12.38-12.45
							c0-6.87,5.54-12.45,12.38-12.45C257.81,203.28,263.36,208.85,263.36,215.73z"/>
						<path class="st2" d="M272.59,204.23c0,6.14-4.95,11.11-11.05,11.11c-6.1,0-11.05-4.97-11.05-11.11
							c0-6.14,4.95-11.11,11.05-11.11C267.65,193.11,272.59,198.09,272.59,204.23z"/>
						<path class="st1" d="M258.87,199.05c0,6.14-4.95,11.11-11.05,11.11c-6.1,0-11.05-4.98-11.05-11.11
							c0-6.14,4.95-11.11,11.05-11.11C253.92,187.94,258.87,192.91,258.87,199.05z"/>
					</g>
				</g>
			</g>
			<g>
				<path class="st42" d="M285.58,127.94H112.21c-6.14,0-11.11-4.97-11.11-11.11l0,0c0-6.14,4.97-11.11,11.11-11.11h173.37
					c6.14,0,11.11,4.97,11.11,11.11l0,0C296.69,122.97,291.72,127.94,285.58,127.94z"/>
				<g>
					<path class="st12" d="M280.73,120.35H160.04c-1.94,0-3.52-1.57-3.52-3.52l0,0c0-1.94,1.57-3.52,3.52-3.52h120.68
						c1.94,0,3.52,1.57,3.52,3.52l0,0C284.24,118.77,282.67,120.35,280.73,120.35z"/>
					<path class="st82" d="M145.41,120.35h-28.35c-1.94,0-3.52-1.57-3.52-3.52l0,0c0-1.94,1.57-3.52,3.52-3.52h28.35
						c1.94,0,3.52,1.57,3.52,3.52l0,0C148.93,118.77,147.36,120.35,145.41,120.35z"/>
				</g>
			</g>
			<g>
				<path class="st83" d="M162.95,250.34h-39.85c-1.31,0-2.37-1.06-2.37-2.37l0,0c0-1.31,1.06-2.37,2.37-2.37h39.85
					c1.31,0,2.37,1.06,2.37,2.37l0,0C165.32,249.28,164.26,250.34,162.95,250.34z"/>
				<path class="st83" d="M218.09,250.34h-39.85c-1.31,0-2.37-1.06-2.37-2.37l0,0c0-1.31,1.06-2.37,2.37-2.37h39.85
					c1.31,0,2.37,1.06,2.37,2.37l0,0C220.46,249.28,219.4,250.34,218.09,250.34z"/>
				<path class="st83" d="M274.69,250.34h-39.84c-1.31,0-2.37-1.06-2.37-2.37l0,0c0-1.31,1.06-2.37,2.37-2.37h39.84
					c1.31,0,2.37,1.06,2.37,2.37l0,0C277.06,249.28,276,250.34,274.69,250.34z"/>
				<path class="st83" d="M162.95,259.98h-39.85c-1.31,0-2.37-1.06-2.37-2.37v-0.01c0-1.31,1.06-2.37,2.37-2.37h39.85
					c1.31,0,2.37,1.06,2.37,2.37v0.01C165.32,258.92,164.26,259.98,162.95,259.98z"/>
				<path class="st83" d="M218.09,259.98h-39.85c-1.31,0-2.37-1.06-2.37-2.37v-0.01c0-1.31,1.06-2.37,2.37-2.37h39.85
					c1.31,0,2.37,1.06,2.37,2.37v0.01C220.46,258.92,219.4,259.98,218.09,259.98z"/>
				<path class="st83" d="M274.69,259.98h-39.84c-1.31,0-2.37-1.06-2.37-2.37v-0.01c0-1.31,1.06-2.37,2.37-2.37h39.84
					c1.31,0,2.37,1.06,2.37,2.37v0.01C277.06,258.92,276,259.98,274.69,259.98z"/>
			</g>
			<g>
				<circle class="st78" cx="106.31" cy="79.58" r="6.42"/>
				<path class="st78" d="M135.11,79.58c0-3.55-2.87-6.42-6.42-6.42c-3.55,0-6.42,2.87-6.42,6.42s2.87,6.42,6.42,6.42
					C132.24,86,135.11,83.13,135.11,79.58z"/>
				<circle class="st78" cx="151.07" cy="79.58" r="6.42"/>
			</g>
			<g>
				<g>
					<path class="st2" d="M145.18,323.73h-30.12c-1.98,0-3.58-1.6-3.58-3.58v-10.91c0-1.98,1.6-3.58,3.58-3.58h30.12
						c1.98,0,3.58,1.6,3.58,3.58v10.91C148.76,322.13,147.16,323.73,145.18,323.73z"/>
					<path class="st83" d="M146.32,300.29h-32.39c-1.31,0-2.38-1.06-2.38-2.38l0,0c0-1.31,1.06-2.38,2.38-2.38h32.39
						c1.31,0,2.38,1.06,2.38,2.38l0,0C148.69,299.22,147.63,300.29,146.32,300.29z"/>
				</g>
				<g>
					<path class="st2" d="M191.03,323.73h-30.12c-1.98,0-3.58-1.6-3.58-3.58v-10.91c0-1.98,1.6-3.58,3.58-3.58h30.12
						c1.98,0,3.58,1.6,3.58,3.58v10.91C194.61,322.13,193.01,323.73,191.03,323.73z"/>
					<path class="st83" d="M192.17,300.29h-32.39c-1.31,0-2.37-1.06-2.37-2.38l0,0c0-1.31,1.06-2.38,2.37-2.38h32.39
						c1.31,0,2.37,1.06,2.37,2.38l0,0C194.54,299.22,193.48,300.29,192.17,300.29z"/>
				</g>
				<g>
					<path class="st2" d="M236.88,323.73h-30.11c-1.98,0-3.58-1.6-3.58-3.58v-10.91c0-1.98,1.6-3.58,3.58-3.58h30.11
						c1.98,0,3.58,1.6,3.58,3.58v10.91C240.46,322.13,238.86,323.73,236.88,323.73z"/>
					<path class="st83" d="M238.02,300.29h-32.39c-1.31,0-2.38-1.06-2.38-2.38l0,0c0-1.31,1.06-2.38,2.38-2.38h32.39
						c1.31,0,2.38,1.06,2.38,2.38l0,0C240.39,299.22,239.33,300.29,238.02,300.29z"/>
				</g>
				<g>
					<path class="st2" d="M282.73,323.73h-30.12c-1.98,0-3.58-1.6-3.58-3.58v-10.91c0-1.98,1.6-3.58,3.58-3.58h30.12
						c1.98,0,3.58,1.6,3.58,3.58v10.91C286.31,322.13,284.71,323.73,282.73,323.73z"/>
					<path class="st83" d="M283.87,300.29h-32.39c-1.31,0-2.38-1.06-2.38-2.38l0,0c0-1.31,1.06-2.38,2.38-2.38h32.39
						c1.31,0,2.38,1.06,2.38,2.38l0,0C286.24,299.22,285.18,300.29,283.87,300.29z"/>
				</g>
			</g>
		</g>
	</g>
</g>
</svg>
