<svg xmlns="http://www.w3.org/2000/svg" viewBox="0 0 547.09 78.14"><defs><style>.cls-1{fill:#ff671d;}.cls-2{fill:#9d1d96;}.cls-3{fill:#1a428a;}</style></defs><g id="Capa_2" data-name="Capa 2"><g id="Fondo"><path class="cls-1" d="M158.8,0a2.64,2.64,0,0,1,2.59,2.61v33.9a2.57,2.57,0,1,1-5.13,0V2.61A2.62,2.62,0,0,1,158.8,0Z"/><path class="cls-1" d="M176.22,9.29l-1.13-2.12V36.45a2.52,2.52,0,0,1-2.48,2.66A2.61,2.61,0,0,1,170,36.45V3.21A2.7,2.7,0,0,1,172.66.54h2.21A3.05,3.05,0,0,1,177.3,1.9l19.21,27.92,1.13,2.12V2.61A2.52,2.52,0,0,1,200.12,0a2.6,2.6,0,0,1,2.59,2.61v33.3a2.69,2.69,0,0,1-2.64,2.66h-2.21a3.05,3.05,0,0,1-2.43-1.36Z"/><path class="cls-1" d="M217,9.29l-1.13-2.12V36.45a2.52,2.52,0,0,1-2.48,2.66,2.61,2.61,0,0,1-2.59-2.66V3.21A2.7,2.7,0,0,1,213.45.54h2.21a3.07,3.07,0,0,1,2.43,1.36L237.3,29.82l1.13,2.12V2.61A2.51,2.51,0,0,1,240.91,0a2.6,2.6,0,0,1,2.59,2.61v33.3a2.69,2.69,0,0,1-2.64,2.66h-2.22a3,3,0,0,1-2.42-1.36Z"/><path class="cls-1" d="M269.24,0a19.48,19.48,0,0,1,19.2,19.61,19.23,19.23,0,1,1-38.46,0A19.49,19.49,0,0,1,269.24,0Zm0,34.55c8,0,14.13-6.79,14.13-14.94s-6.15-15-14.13-15S255.1,11.41,255.1,19.61,261.2,34.55,269.24,34.55Z"/><path class="cls-1" d="M307.54,33.9h.76L319.57,2.23A3,3,0,0,1,322.22,0a2.63,2.63,0,0,1,2.53,2.66,7.34,7.34,0,0,1-.38,1.63L313.1,36.45a3,3,0,0,1-2.48,2.12h-5.24a2.78,2.78,0,0,1-2.59-2L291.47,4.29a6.53,6.53,0,0,1-.38-1.68A2.59,2.59,0,0,1,293.62,0a2.8,2.8,0,0,1,2.59,2.12Z"/><path class="cls-1" d="M349.79,28.14H332.15L329,36.89a3,3,0,0,1-2.64,2.22,2.63,2.63,0,0,1-2.54-2.66,5.16,5.16,0,0,1,.38-1.63L335.81,2.66A3,3,0,0,1,338.3.54h5.23a2.78,2.78,0,0,1,2.59,2l11.65,32.27a6.49,6.49,0,0,1,.38,1.69,2.59,2.59,0,0,1-2.54,2.6A2.8,2.8,0,0,1,353,37Zm-16-4.62h14.29l-6.63-18.3h-1Z"/><path class="cls-2" d="M401.58,36.4A2.59,2.59,0,0,1,399,39.11a2.53,2.53,0,0,1-2.48-2.71V7l-1.3,1.79L385.5,20.64a4,4,0,0,1-2.8,1.52,3.9,3.9,0,0,1-2.81-1.52L370.18,8.85,368.89,7V36.4a2.52,2.52,0,0,1-2.54,2.71,2.57,2.57,0,0,1-2.53-2.71V3.26A2.59,2.59,0,0,1,366.4.54h2.11A3.37,3.37,0,0,1,371,2L382.7,16.35,394.4,2A3.38,3.38,0,0,1,396.83.54h2.11a2.6,2.6,0,0,1,2.64,2.72Z"/><path class="cls-2" d="M412,0a2.59,2.59,0,0,1,2.54,2.61V22.38c0,8.86,5.72,12.06,11.44,12.06s11.49-3.2,11.49-12.06V2.55a2.56,2.56,0,0,1,5.12,0V22c0,11.57-7.82,17.11-16.61,17.11S409.4,33.57,409.4,22V2.61A2.61,2.61,0,0,1,412,0Z"/><path class="cls-2" d="M475.6,0a2.63,2.63,0,0,1,2.59,2.61V23.79a15.05,15.05,0,0,1-14.94,15.32c-8.47,0-15-6.3-15-14.77a2.54,2.54,0,1,1,5.07,0,9.88,9.88,0,1,0,19.75,0V2.61A2.62,2.62,0,0,1,475.6,0Z"/><path class="cls-2" d="M510.51,33.9a2.34,2.34,0,1,1,0,4.67H488.82A2.55,2.55,0,0,1,486.29,36V3a2.49,2.49,0,0,1,2.53-2.5h21.69a2.32,2.32,0,0,1,2.43,2.34,2.32,2.32,0,0,1-2.43,2.34H491.36V16.57h16.07a2.28,2.28,0,0,1,2.38,2.28,2.3,2.3,0,0,1-2.38,2.39H491.36V33.9Z"/><path class="cls-2" d="M546.44,34.82a2.61,2.61,0,0,1,.48,1.63,2.67,2.67,0,0,1-2.53,2.66,2.48,2.48,0,0,1-2.1-1l-9.66-13.25h-8.15V36.45A2.6,2.6,0,0,1,522,39.11a2.64,2.64,0,0,1-2.54-2.66V3.15A2.6,2.6,0,0,1,522,.54h12.63a12.31,12.31,0,0,1,12.46,12.55,12.5,12.5,0,0,1-8.37,11.41Zm-22-14.61h10.15A7.33,7.33,0,0,0,542,12.93a7.72,7.72,0,0,0-7.39-7.77H524.48Z"/><path class="cls-1" d="M19.26,8.51a11.28,11.28,0,0,1,0,16l-8,8-8-8a11.29,11.29,0,0,1,16-16Z"/><path class="cls-1" d="M18.52,30.41l-7.24,7.24L4,30.41a11.25,11.25,0,0,0-4,8.65V61.62a11.29,11.29,0,1,0,22.57,0V39.06A11.26,11.26,0,0,0,18.52,30.41Z"/><path class="cls-2" d="M107.44,5.19a27.59,27.59,0,0,0-18.31,6.93l-.61.53a27.74,27.74,0,0,0-37.59-.24l-.24.2a21.43,21.43,0,0,0-8.92-5.95,8.9,8.9,0,0,0-2.66-.41,9,9,0,0,0-8.63,6.42c-1.36,4.44.66,8.44,5.69,11.26,2.68,1.51,5.42,4.07,5.42,11.68V63.84a9,9,0,1,0,18.08,0V35.61c0-.52,0-1,0-1.54,0-.24,0-.49,0-.75a9.9,9.9,0,1,1,19.8,0V63.84a9,9,0,1,0,18.07,0V33.32a9.91,9.91,0,1,1,19.81,0V63.84a9,9,0,1,0,18.07,0V33.32A28.09,28.09,0,0,0,107.44,5.19Z"/><path class="cls-3" d="M178.16,53.82V76.44a1.73,1.73,0,0,1-1.74,1.7,1.7,1.7,0,0,1-1.7-1.7V66.23h-15V76.44a1.72,1.72,0,0,1-3.44,0V53.82a1.72,1.72,0,1,1,3.44,0V63.2h15V53.82a1.71,1.71,0,0,1,1.7-1.73A1.74,1.74,0,0,1,178.16,53.82Z"/><path class="cls-3" d="M196,52.09A13,13,0,1,1,183,65.15,13,13,0,0,1,196,52.09Zm0,23a10,10,0,0,0,0-20c-5.4,0-9.49,4.56-9.49,10A9.67,9.67,0,0,0,196,75.1Z"/><path class="cls-3" d="M217.88,58.27l-.76-1.41V76.37a1.69,1.69,0,0,1-1.66,1.77,1.75,1.75,0,0,1-1.74-1.77V54.22a1.8,1.8,0,0,1,1.77-1.77H217a2.07,2.07,0,0,1,1.63.9L231.49,72l.76,1.41V53.82a1.67,1.67,0,0,1,1.66-1.73,1.73,1.73,0,0,1,1.74,1.73V76a1.8,1.8,0,0,1-1.77,1.77h-1.49a2.05,2.05,0,0,1-1.63-.91Z"/><path class="cls-3" d="M249.33,52.45c8.28,0,12.91,5.61,12.91,12.55s-4.63,12.78-12.91,12.78h-6.12a1.6,1.6,0,0,1-1.59-1.67v-22a1.58,1.58,0,0,1,1.59-1.66ZM245,55.52V74.7h4.31c6.58,0,9.62-4.63,9.62-9.7s-3-9.48-9.62-9.48Z"/><path class="cls-3" d="M268.68,52.09a1.72,1.72,0,0,1,1.7,1.73V67c0,5.9,3.84,8,7.68,8s7.7-2.14,7.7-8V53.79a1.72,1.72,0,0,1,3.44,0V66.74c0,7.71-5.25,11.4-11.14,11.4S267,74.45,267,66.74V53.82A1.73,1.73,0,0,1,268.68,52.09Z"/><path class="cls-3" d="M313.12,75.28a1.83,1.83,0,0,1-1.38,2.86,1.69,1.69,0,0,1-1.41-.69l-6.48-8.83h-5.46v7.75a1.73,1.73,0,0,1-1.7,1.77,1.76,1.76,0,0,1-1.7-1.77V54.18a1.73,1.73,0,0,1,1.73-1.73h8.47a8.23,8.23,0,0,1,8.36,8.36,8.33,8.33,0,0,1-5.61,7.6Zm-14.73-9.73h6.8a4.9,4.9,0,0,0,5-4.85,5.17,5.17,0,0,0-5-5.18h-6.8Z"/><path class="cls-3" d="M334.61,70.83H322.78l-2.14,5.83a2,2,0,0,1-1.77,1.48,1.76,1.76,0,0,1-1.7-1.77,3.2,3.2,0,0,1,.25-1.09l7.82-21.42a2,2,0,0,1,1.66-1.41h3.51a1.86,1.86,0,0,1,1.74,1.34L340,75.28a4.32,4.32,0,0,1,.25,1.12,1.73,1.73,0,0,1-1.7,1.74,1.88,1.88,0,0,1-1.74-1.41ZM323.9,67.76h9.59L329,55.56h-.65Z"/><path class="cls-3" d="M358.24,70.87c0-6-14.37-2.93-14.37-11.84,0-3.8,3.69-6.94,8.43-6.94,5.43,0,8.43,3.25,8.43,4.77a1.6,1.6,0,0,1-1.59,1.6c-.9,0-1.23-.55-1.66-1A6.29,6.29,0,0,0,352.41,55c-3.15,0-5.17,1.91-5.17,3.69,0,5.93,14.47,3.07,14.47,11.87,0,4.56-4.34,7.56-9.26,7.56-5.76,0-9-3.94-9-5.21a1.58,1.58,0,0,1,1.56-1.7,2.21,2.21,0,0,1,1.81,1.12,6.69,6.69,0,0,0,5.68,2.75C355.7,75.1,358.24,73.07,358.24,70.87Z"/></g></g></svg>