<?xml version="1.0" encoding="UTF-8" standalone="no"?>
<svg
   xmlns:dc="http://purl.org/dc/elements/1.1/"
   xmlns:cc="http://creativecommons.org/ns#"
   xmlns:rdf="http://www.w3.org/1999/02/22-rdf-syntax-ns#"
   xmlns:svg="http://www.w3.org/2000/svg"
   xmlns="http://www.w3.org/2000/svg"
   id="svg60"
   version="1.1"
   viewBox="0 0 455.05 549.28">
  <metadata
     id="metadata64">
    <rdf:RDF>
      <cc:Work
         rdf:about="">
        <dc:format>image/svg+xml</dc:format>
        <dc:type
           rdf:resource="http://purl.org/dc/dcmitype/StillImage" />
        <dc:title></dc:title>
      </cc:Work>
    </rdf:RDF>
  </metadata>
  <defs
     id="defs4">
    <style
       id="style2">.cls-1{fill:#9d1d96;}.cls-2,.cls-3{fill:#fff;}.cls-3{fill-rule:evenodd;}</style>
  </defs>
  <g
     data-name="Capa 2"
     id="Capa_2">
    <path
       class="cls-1"
       d="m 66.62,482.65 c -88.83,-88.86 -88.83,-232.91 0,-321.78 L 227.52,0 c 0,0 144.48,144.52 160.88,160.87 88.86,88.87 88.86,232.92 0,321.78 -88.86,88.86 -232.91,88.85 -321.78,0 z"
       id="path6"
       style="fill:#9d1d96" />
    <g
       transform="translate(-0.01499541,16.676284)"
       id="g114">
      <path
         style="fill:#ffffff"
         id="path8"
         d="m 44.65,277.66 a 2.49,2.49 0 0 1 2.45,2.47 v 32.14 a 2.43,2.43 0 1 1 -4.86,0 v -32.14 a 2.49,2.49 0 0 1 2.41,-2.47 z"
         class="cls-2" />
      <path
         style="fill:#ffffff"
         id="path10"
         d="m 61.17,286.47 -1.08,-2 v 27.76 a 2.39,2.39 0 0 1 -2.35,2.52 2.47,2.47 0 0 1 -2.45,-2.52 V 280.7 a 2.55,2.55 0 0 1 2.5,-2.53 h 2.1 a 2.88,2.88 0 0 1 2.3,1.29 l 18.21,26.47 1.08,2 v -27.8 a 2.37,2.37 0 0 1 2.35,-2.47 2.46,2.46 0 0 1 2.45,2.47 v 31.57 a 2.55,2.55 0 0 1 -2.5,2.53 h -2.1 a 2.9,2.9 0 0 1 -2.3,-1.29 z"
         class="cls-2" />
      <path
         style="fill:#ffffff"
         id="path12"
         d="m 99.84,286.47 -1.07,-2 v 27.76 A 2.39,2.39 0 0 1 96.41,314.75 2.47,2.47 0 0 1 94,312.22 V 280.7 a 2.55,2.55 0 0 1 2.51,-2.53 h 2.09 a 2.88,2.88 0 0 1 2.3,1.29 l 18.21,26.47 1.08,2 v -27.8 a 2.37,2.37 0 0 1 2.35,-2.47 2.47,2.47 0 0 1 2.46,2.47 v 31.57 a 2.56,2.56 0 0 1 -2.51,2.53 h -2.1 a 2.91,2.91 0 0 1 -2.3,-1.29 z"
         class="cls-2" />
      <path
         style="fill:#ffffff"
         id="path14"
         d="m 149.36,277.66 a 18.54,18.54 0 1 1 -18.26,18.59 18.46,18.46 0 0 1 18.26,-18.59 z m 0,32.76 c 7.57,0 13.4,-6.44 13.4,-14.17 0,-7.73 -5.83,-14.25 -13.4,-14.25 -7.57,0 -13.36,6.47 -13.36,14.25 0,7.78 5.74,14.17 13.36,14.17 z"
         class="cls-2" />
      <path
         style="fill:#ffffff"
         id="path16"
         d="m 185.68,309.8 h 0.71 l 10.7,-30 a 2.78,2.78 0 0 1 2.5,-2.11 2.5,2.5 0 0 1 2.41,2.52 7.41,7.41 0 0 1 -0.36,1.55 L 191,312.22 a 2.85,2.85 0 0 1 -2.36,2 h -5 a 2.64,2.64 0 0 1 -2.45,-1.91 l -10.74,-30.59 a 6,6 0 0 1 -0.36,-1.6 2.45,2.45 0 0 1 2.4,-2.47 2.65,2.65 0 0 1 2.46,2 z"
         class="cls-2" />
      <path
         style="fill:#ffffff"
         id="path18"
         d="M 225.73,304.34 H 209 l -3,8.29 a 2.85,2.85 0 0 1 -2.51,2.11 2.49,2.49 0 0 1 -2.4,-2.52 4.73,4.73 0 0 1 0.36,-1.55 l 11,-30.49 a 2.85,2.85 0 0 1 2.36,-2 h 5 a 2.62,2.62 0 0 1 2.45,1.91 l 11.05,30.59 a 6,6 0 0 1 0.36,1.6 2.45,2.45 0 0 1 -2.4,2.47 2.65,2.65 0 0 1 -2.46,-2 z M 210.59,300 h 13.56 l -6.3,-17.36 h -0.92 z"
         class="cls-2" />
      <path
         style="fill:#ffffff"
         id="path20"
         d="m 274.84,312.17 a 2.45,2.45 0 0 1 -2.46,2.57 2.4,2.4 0 0 1 -2.35,-2.57 V 284.3 l -1.23,1.7 -9.2,11.23 a 3.84,3.84 0 0 1 -2.66,1.44 3.7,3.7 0 0 1 -2.66,-1.44 l -9.21,-11.18 -1.23,-1.75 v 27.87 a 2.38,2.38 0 0 1 -2.4,2.57 2.45,2.45 0 0 1 -2.41,-2.57 v -31.42 a 2.46,2.46 0 0 1 2.46,-2.58 h 2 a 3.23,3.23 0 0 1 2.36,1.39 l 11.1,13.6 11.1,-13.6 a 3.18,3.18 0 0 1 2.3,-1.39 h 2 a 2.47,2.47 0 0 1 2.51,2.58 z"
         class="cls-2" />
      <path
         style="fill:#ffffff"
         id="path22"
         d="m 284.71,277.66 a 2.46,2.46 0 0 1 2.41,2.47 v 18.75 c 0,8.39 5.42,11.43 10.84,11.43 5.42,0 10.9,-3 10.9,-11.43 v -18.8 a 2.43,2.43 0 0 1 4.86,0 v 18.44 c 0,11 -7.42,16.22 -15.76,16.22 -8.34,0 -15.7,-5.25 -15.7,-16.22 v -18.39 a 2.46,2.46 0 0 1 2.45,-2.47 z"
         class="cls-2" />
      <path
         style="fill:#ffffff"
         id="path24"
         d="m 345,277.66 a 2.49,2.49 0 0 1 2.46,2.47 v 20.09 a 14.27,14.27 0 0 1 -14.17,14.52 13.82,13.82 0 0 1 -14.22,-14 2.41,2.41 0 1 1 4.81,0 9.37,9.37 0 1 0 18.72,0 v -20.6 a 2.48,2.48 0 0 1 2.4,-2.48 z"
         class="cls-2" />
      <path
         style="fill:#ffffff"
         id="path26"
         d="m 378.12,309.8 a 2.22,2.22 0 1 1 0,4.43 h -20.56 a 2.42,2.42 0 0 1 -2.41,-2.47 v -31.22 a 2.37,2.37 0 0 1 2.41,-2.37 h 20.56 a 2.22,2.22 0 1 1 0,4.43 H 360 v 10.77 h 15.25 a 2.16,2.16 0 0 1 2.25,2.16 2.19,2.19 0 0 1 -2.25,2.27 H 360 v 12 z"
         class="cls-2" />
      <path
         style="fill:#ffffff"
         id="path28"
         d="m 412.19,310.67 a 2.49,2.49 0 0 1 0.46,1.55 2.53,2.53 0 0 1 -2.4,2.52 2.38,2.38 0 0 1 -2,-1 l -9.16,-12.56 h -7.72 v 11 a 2.46,2.46 0 0 1 -2.4,2.52 2.5,2.5 0 0 1 -2.41,-2.52 v -31.54 a 2.47,2.47 0 0 1 2.46,-2.47 h 12 a 11.66,11.66 0 0 1 11.81,11.9 11.86,11.86 0 0 1 -7.93,10.82 z M 391.37,296.82 H 401 a 6.94,6.94 0 0 0 7,-6.9 7.32,7.32 0 0 0 -7,-7.37 h -9.62 z"
         class="cls-2" />
      <path
         style="fill:#ffffff"
         id="path30"
         d="m 181.59,199.29 a 10.71,10.71 0 0 1 0,15.13 L 174,222 l -7.56,-7.56 a 10.7,10.7 0 0 1 15.13,-15.13 z"
         class="cls-2" />
      <path
         style="fill:#ffffff"
         id="path32"
         d="m 180.89,220.05 -6.89,6.86 -6.86,-6.86 a 10.67,10.67 0 0 0 -3.84,8.2 v 21.4 a 10.7,10.7 0 0 0 21.4,0 v -21.4 a 10.66,10.66 0 0 0 -3.81,-8.2 z"
         class="cls-2" />
      <path
         style="fill:#ffffff"
         id="path34"
         d="m 265.2,196.13 a 26.22,26.22 0 0 0 -17.37,6.57 l -0.57,0.51 a 26.29,26.29 0 0 0 -35.65,-0.23 l -0.22,0.19 a 20.32,20.32 0 0 0 -8.46,-5.64 8.34,8.34 0 0 0 -2.52,-0.39 8.55,8.55 0 0 0 -8.19,6.09 c -1.29,4.21 0.63,8 5.4,10.68 2.54,1.42 5.14,3.86 5.14,11.07 v 26.77 a 8.57,8.57 0 1 0 17.14,0 V 225 c 0,-0.49 0,-1 0,-1.46 0,-0.23 0,-0.47 0,-0.71 a 9.39,9.39 0 1 1 18.77,0 v 28.94 a 8.57,8.57 0 1 0 17.14,0 v -28.96 a 9.39,9.39 0 1 1 18.78,0 v 28.94 a 8.57,8.57 0 1 0 17.13,0 V 222.81 A 26.63,26.63 0 0 0 265.2,196.13 Z"
         class="cls-2" />
      <path
         style="fill:#ffffff"
         id="path36"
         d="m 150.88,328.71 v 21.45 a 1.63,1.63 0 0 1 -1.64,1.61 1.61,1.61 0 0 1 -1.62,-1.61 v -9.68 h -14.24 v 9.68 a 1.63,1.63 0 0 1 -3.26,0 v -21.45 a 1.63,1.63 0 1 1 3.26,0 v 8.89 h 14.24 v -8.89 a 1.62,1.62 0 0 1 1.62,-1.64 1.64,1.64 0 0 1 1.64,1.64 z"
         class="cls-2" />
      <path
         style="fill:#ffffff"
         id="path38"
         d="m 167.76,327.07 a 12.35,12.35 0 1 1 -12.25,12.38 12.34,12.34 0 0 1 12.25,-12.38 z m 0,21.82 a 9.48,9.48 0 1 0 -9,-9.44 9.19,9.19 0 0 0 9,9.44 z"
         class="cls-2" />
      <path
         style="fill:#ffffff"
         id="path40"
         d="m 188.55,332.93 -0.72,-1.34 v 18.5 a 1.6,1.6 0 0 1 -1.58,1.68 1.66,1.66 0 0 1 -1.65,-1.68 v -21 a 1.71,1.71 0 0 1 1.69,-1.68 h 1.4 a 2,2 0 0 1 1.55,0.86 l 12.21,17.63 0.72,1.34 v -18.53 a 1.58,1.58 0 0 1 1.58,-1.64 1.64,1.64 0 0 1 1.65,1.64 v 21 a 1.71,1.71 0 0 1 -1.68,1.69 h -1.41 a 2,2 0 0 1 -1.55,-0.86 z"
         class="cls-2" />
      <path
         style="fill:#ffffff"
         id="path42"
         d="m 218.36,327.41 c 7.86,0 12.25,5.32 12.25,11.9 0,6.58 -4.39,12.12 -12.25,12.12 h -5.8 a 1.53,1.53 0 0 1 -1.51,-1.58 V 329 a 1.5,1.5 0 0 1 1.51,-1.58 z m -4.08,2.91 v 18.19 h 4.08 c 6.25,0 9.13,-4.39 9.13,-9.2 0,-4.81 -2.88,-9 -9.13,-9 z"
         class="cls-2" />
      <path
         style="fill:#ffffff"
         id="path44"
         d="m 236.72,327.07 a 1.63,1.63 0 0 1 1.61,1.64 v 12.49 c 0,5.59 3.64,7.62 7.27,7.62 3.63,0 7.31,-2 7.31,-7.62 v -12.52 a 1.63,1.63 0 0 1 3.26,0 V 341 c 0,7.31 -5,10.81 -10.57,10.81 -5.57,0 -10.53,-3.5 -10.53,-10.81 v -12.29 a 1.64,1.64 0 0 1 1.65,-1.64 z"
         class="cls-2" />
      <path
         style="fill:#ffffff"
         id="path46"
         d="m 278.85,349.06 a 1.64,1.64 0 0 1 0.31,1 1.7,1.7 0 0 1 -1.62,1.68 1.59,1.59 0 0 1 -1.33,-0.65 l -6.15,-8.37 h -5.18 v 7.34 a 1.64,1.64 0 0 1 -1.61,1.68 1.67,1.67 0 0 1 -1.61,-1.68 v -21 a 1.64,1.64 0 0 1 1.64,-1.65 h 8 a 7.8,7.8 0 0 1 7.93,7.92 7.9,7.9 0 0 1 -5.32,7.21 z m -14,-9.23 h 6.45 a 4.64,4.64 0 0 0 4.7,-4.6 4.89,4.89 0 0 0 -4.7,-4.91 h -6.45 z"
         class="cls-2" />
      <path
         style="fill:#ffffff"
         id="path48"
         d="M 299.23,344.84 H 288 l -2,5.52 a 1.9,1.9 0 0 1 -1.68,1.41 1.66,1.66 0 0 1 -1.61,-1.68 3,3 0 0 1 0.24,-1 l 7.41,-20.31 a 1.9,1.9 0 0 1 1.58,-1.34 h 3.33 a 1.76,1.76 0 0 1 1.64,1.27 l 7.41,20.38 a 3.68,3.68 0 0 1 0.24,1.06 1.64,1.64 0 0 1 -1.61,1.65 1.78,1.78 0 0 1 -1.65,-1.34 z m -10.16,-2.92 h 9.09 l -4.22,-11.56 h -0.62 z"
         class="cls-2" />
      <path
         style="fill:#ffffff"
         id="path50"
         d="m 321.63,344.87 c 0,-5.69 -13.62,-2.78 -13.62,-11.22 0,-3.6 3.5,-6.58 8,-6.58 5.15,0 8,3.08 8,4.52 a 1.52,1.52 0 0 1 -1.51,1.51 c -0.86,0 -1.17,-0.51 -1.58,-1 a 6,6 0 0 0 -4.81,-2.3 c -3,0 -4.9,1.82 -4.9,3.5 0,5.63 13.72,2.92 13.72,11.26 0,4.32 -4.12,7.17 -8.78,7.17 -5.46,0 -8.51,-3.74 -8.51,-4.94 a 1.5,1.5 0 0 1 1.47,-1.61 2.08,2.08 0 0 1 1.72,1.06 6.35,6.35 0 0 0 5.39,2.61 c 3.01,0.04 5.41,-1.85 5.41,-3.98 z"
         class="cls-2" />
    </g>
  </g>
</svg>
