<?xml version="1.0" encoding="UTF-8" standalone="no"?>
<svg
   xmlns:dc="http://purl.org/dc/elements/1.1/"
   xmlns:cc="http://creativecommons.org/ns#"
   xmlns:rdf="http://www.w3.org/1999/02/22-rdf-syntax-ns#"
   xmlns:svg="http://www.w3.org/2000/svg"
   xmlns="http://www.w3.org/2000/svg"
   xmlns:sodipodi="http://sodipodi.sourceforge.net/DTD/sodipodi-0.dtd"
   xmlns:inkscape="http://www.inkscape.org/namespaces/inkscape"
   height="512"
   width="512"
   id="svg20"
   version="1.1"
   viewBox="0 0 143.99999 144"
   sodipodi:docname="innova_icon.svg"
   inkscape:version="0.92.5 (2060ec1f9f, 2020-04-08)">
  <sodipodi:namedview
     pagecolor="#ffffff"
     bordercolor="#666666"
     borderopacity="1"
     objecttolerance="10"
     gridtolerance="10"
     guidetolerance="10"
     inkscape:pageopacity="0"
     inkscape:pageshadow="2"
     inkscape:window-width="1848"
     inkscape:window-height="1016"
     id="namedview12"
     showgrid="false"
     inkscape:zoom="3.9895833"
     inkscape:cx="67.683048"
     inkscape:cy="73.147734"
     inkscape:window-x="1152"
     inkscape:window-y="561"
     inkscape:window-maximized="1"
     inkscape:current-layer="svg20" />
  <metadata
     id="metadata24">
    <rdf:RDF>
      <cc:Work
         rdf:about="">
        <dc:format>image/svg+xml</dc:format>
        <dc:type
           rdf:resource="http://purl.org/dc/dcmitype/StillImage" />
        <dc:title></dc:title>
      </cc:Work>
    </rdf:RDF>
  </metadata>
  <defs
     id="defs4">
    <style
       id="style2">.cls-1{isolation:isolate;}.cls-2{opacity:0.19;mix-blend-mode:multiply;}.cls-3{fill:#fff;}.cls-4{fill:#ff671d;}.cls-5{fill:#9d1d96;}</style>
  </defs>
  <g
     transform="matrix(1.2415748,0,0,1.2415748,-33.881499,-25.706393)"
     style="isolation:isolate"
     id="g18"
     class="cls-1">
    <g
       id="FORMULARIO">
      <g
         transform="translate(6.4475,-3.1133586)"
         id="g35">
        <path
           style="fill:#ff671d"
           id="path10"
           d="m 49.1,63 a 6.93,6.93 0 0 1 0,9.79 l -4.9,4.89 -4.89,-4.89 A 6.9225754,6.9225754 0 0 1 49.1,63 Z"
           class="cls-4"
           inkscape:connector-curvature="0" />
        <path
           style="fill:#ff671d"
           id="path12"
           d="M 48.64,76.4 44.2,80.84 39.76,76.4 a 6.93,6.93 0 0 0 -2.48,5.31 v 13.84 a 6.92,6.92 0 1 0 13.84,0 V 81.71 A 6.9,6.9 0 0 0 48.64,76.4 Z"
           class="cls-4"
           inkscape:connector-curvature="0" />
        <path
           style="fill:#9d1d96"
           id="path14"
           d="M 103.2,60.93 A 17,17 0 0 0 92,65.18 l -0.37,0.33 A 17,17 0 0 0 68.56,65.36 l -0.14,0.12 A 13.22,13.22 0 0 0 62.95,61.83 5.35,5.35 0 0 0 61.31,61.58 5.51,5.51 0 0 0 56,65.52 c -0.84,2.72 0.4,5.18 3.49,6.91 1.64,0.92 3.33,2.49 3.33,7.16 v 17.32 a 5.55,5.55 0 1 0 11.09,0 V 79.59 c 0,-0.32 0,-0.63 0,-0.94 0,-0.15 0,-0.31 0,-0.46 a 6.07,6.07 0 1 1 12.14,0 v 18.72 a 5.55,5.55 0 1 0 11.09,0 V 78.19 a 6.08,6.08 0 1 1 12.15,0 v 18.72 a 5.55,5.55 0 1 0 11.09,0 V 78.19 A 17.23,17.23 0 0 0 103.2,60.93 Z"
           class="cls-5"
           inkscape:connector-curvature="0" />
      </g>
    </g>
  </g>
</svg>
