<?xml version="1.0" encoding="UTF-8"?> <svg xmlns="http://www.w3.org/2000/svg" xmlns:xlink="http://www.w3.org/1999/xlink" id="Layer_1" data-name="Layer 1" viewBox="0 0 222 84"> <defs> <style>.cls-1{fill:#6d6e71;}.cls-2{fill:#9a2068;}.cls-3{fill:#eb6258;}.cls-4{fill:url(#linear-gradient);}</style> <linearGradient id="linear-gradient" x1="171.89" y1="29.95" x2="185.01" y2="29.95" gradientUnits="userSpaceOnUse"> <stop offset="0" stop-color="#9a2068"></stop> <stop offset="1" stop-color="#eb6258"></stop> </linearGradient> </defs> <title>We-Fi Logo_FINAL</title> <path class="cls-1" d="M3.9,57.22H5.15l1,5.21c.18,1,.37,2.05.56,3.08h.06c.21-1,.44-2.06.67-3.08l1.32-5.21H9.88l1.32,5.21c.23,1,.46,2.05.69,3.08H12c.19-1,.36-2.07.54-3.08l1-5.21h1.17l-2,9.56H11.23L9.78,61c-.16-.75-.32-1.45-.46-2.18H9.26c-.14.73-.31,1.43-.47,2.18L7.37,66.78H5.93Z"></path> <path class="cls-1" d="M16,62c0-3.06,1.68-4.92,4.08-4.92s4.09,1.86,4.09,4.92-1.69,5-4.09,5S16,65,16,62Zm6.91,0c0-2.38-1.12-3.85-2.83-3.85S17.23,59.59,17.23,62s1.13,3.92,2.83,3.92S22.89,64.35,22.89,62Z"></path> <path class="cls-1" d="M26.5,57.22H28l1.83,5.11c.23.65.45,1.33.68,2h.06c.23-.66.43-1.34.66-2L33,57.22h1.46v9.56H33.34V61.52c0-.83.1-2,.16-2.83h-.06l-.76,2.18-1.8,4.95h-.81l-1.81-4.95-.75-2.18h-.06c.06.85.15,2,.15,2.83v5.26H26.5Z"></path> <path class="cls-1" d="M37.38,57.22h5.51v1H38.6v3h3.62v1H38.6v3.47H43v1H37.38Z"></path> <path class="cls-1" d="M45.35,57.22h1.26l3.46,6,1,2h.06c-.07-1-.16-2-.16-3v-5h1.16v9.56H50.9l-3.46-6-1-2h-.06c.06,1,.15,2,.15,3v5H45.35Z"></path> <path class="cls-1" d="M58.27,57.22h5.51v1H59.49v3h3.62v1H59.49v3.47h4.43v1H58.27Z"></path> <path class="cls-1" d="M66.24,57.22h1.25l3.46,6,1,2H72c-.06-1-.15-2-.15-3v-5H73v9.56H71.79l-3.46-6-1-2h-.06c.06,1,.15,2,.15,3v5H66.24Z"></path> <path class="cls-1" d="M77.94,58.25H75.05v-1h7v1H79.16v8.53H77.94Z"></path> <path class="cls-1" d="M84.06,57.22h3c2,0,3.34.7,3.34,2.69S89,62.74,87.05,62.74H85.27v4H84.06Zm2.81,4.54c1.49,0,2.31-.61,2.31-1.85s-.82-1.7-2.31-1.7h-1.6v3.55Zm-.06.65,1-.63,2.92,5H89.3Z"></path> <path class="cls-1" d="M92.64,57.22h5.51v1H93.86v3h3.62v1H93.86v3.47H98.3v1H92.64Z"></path> <path class="cls-1" d="M100.61,57.22h2.73c2.14,0,3.59.72,3.59,2.82s-1.44,3-3.53,3h-1.57v3.79h-1.22ZM103.25,62c1.67,0,2.46-.6,2.46-2s-.84-1.83-2.52-1.83h-1.36V62Z"></path> <path class="cls-1" d="M109.15,57.22h3c1.94,0,3.34.7,3.34,2.69s-1.4,2.83-3.34,2.83h-1.78v4h-1.22ZM112,61.76c1.49,0,2.31-.61,2.31-1.85s-.82-1.7-2.31-1.7h-1.6v3.55Zm-.06.65,1-.63,2.92,5H114.4Z"></path> <path class="cls-1" d="M117.74,57.22h5.51v1H119v3h3.62v1H119v3.47h4.43v1h-5.65Z"></path> <path class="cls-1" d="M125.71,57.22H127l3.46,6,1,2h0c-.06-1-.15-2-.15-3v-5h1.15v9.56h-1.25l-3.46-6-1-2h-.06c.06,1,.15,2,.15,3v5h-1.15Z"></path> <path class="cls-1" d="M135.42,57.22h5.51v1h-4.29v3h3.62v1h-3.62v3.47h4.44v1h-5.66Z"></path> <path class="cls-1" d="M143.35,62.83V57.22h1.22v5.65c0,2.3,1,3,2.22,3s2.26-.72,2.26-3V57.22h1.17v5.61c0,3.07-1.48,4.13-3.43,4.13S143.35,65.9,143.35,62.83Z"></path> <path class="cls-1" d="M153.09,57.22h3c1.95,0,3.35.7,3.35,2.69s-1.4,2.83-3.35,2.83H154.3v4h-1.21Zm2.82,4.54c1.48,0,2.3-.61,2.3-1.85s-.82-1.7-2.3-1.7H154.3v3.55Zm-.07.65.95-.63,2.92,5h-1.38Z"></path> <path class="cls-1" d="M160.78,65.54l.72-.84a3.73,3.73,0,0,0,2.64,1.19c1.26,0,2-.63,2-1.56s-.69-1.28-1.6-1.68l-1.37-.6a2.56,2.56,0,0,1,1.07-5,4,4,0,0,1,2.82,1.18l-.64.78a3.08,3.08,0,0,0-2.18-.89c-1.07,0-1.78.54-1.78,1.39s.84,1.27,1.59,1.59l1.36.58a2.68,2.68,0,0,1,2,2.56c0,1.51-1.25,2.72-3.26,2.72A4.57,4.57,0,0,1,160.78,65.54Z"></path> <path class="cls-1" d="M45,71.79h5.51v1H46.25v3.23h3.64v1H46.25v4.27H45Z"></path> <path class="cls-1" d="M52.52,71.79h1.22v9.56H52.52Z"></path> <path class="cls-1" d="M56.65,71.79H57.9l3.46,6,1,2h.06c-.06-1-.15-2-.15-3V71.79h1.15v9.56H62.2l-3.46-6-1-2h-.05c.06,1,.15,2,.15,3v5H56.65Z"></path> <path class="cls-1" d="M68.33,71.79H69.7l3.23,9.56H71.64L70,76c-.35-1.07-.65-2.11-1-3.22H69c-.29,1.11-.6,2.15-.94,3.22l-1.69,5.34H65.09Zm-1.54,5.68h4.4v1h-4.4Z"></path> <path class="cls-1" d="M74.51,71.79h1.26l3.46,6,1,2h.06c-.06-1-.16-2-.16-3V71.79h1.16v9.56H80.06l-3.46-6-1-2h-.06c.06,1,.16,2,.16,3v5H74.51Z"></path> <path class="cls-1" d="M83.67,76.58c0-3.08,1.82-5,4.24-5a3.55,3.55,0,0,1,2.63,1.18l-.66.79a2.61,2.61,0,0,0-1.94-.9c-1.81,0-3,1.48-3,3.86s1.15,3.91,3,3.91a2.85,2.85,0,0,0,2.21-1.08l.67.77a3.67,3.67,0,0,1-2.93,1.38C85.46,81.53,83.67,79.69,83.67,76.58Z"></path> <path class="cls-1" d="M92.84,71.79h5.51v1h-4.3v3h3.62v1H94.05v3.47h4.44v1H92.84Z"></path> <path class="cls-1" d="M104,71.79h1.22v9.56H104Z"></path> <path class="cls-1" d="M108.13,71.79h1.26l3.46,6,1,2h.06c-.06-1-.16-2-.16-3V71.79h1.16v9.56h-1.26l-3.46-6-1-2h-.06c.06,1,.16,2,.16,3v5h-1.16Z"></path> <path class="cls-1" d="M117.85,71.79h1.21v9.56h-1.21Z"></path> <path class="cls-1" d="M124,72.82h-2.89v-1h7v1h-2.9v8.53H124Z"></path> <path class="cls-1" d="M130.07,71.79h1.22v9.56h-1.22Z"></path> <path class="cls-1" d="M136.16,71.79h1.37l3.24,9.56h-1.29L137.81,76c-.34-1.07-.65-2.11-1-3.22h-.06c-.29,1.11-.6,2.15-.94,3.22l-1.69,5.34h-1.23Zm-1.53,5.68H139v1h-4.4Z"></path> <path class="cls-1" d="M143.59,72.82H140.7v-1h7v1h-2.89v8.53h-1.22Z"></path> <path class="cls-1" d="M149.71,71.79h1.21v9.56h-1.21Z"></path> <path class="cls-1" d="M152.52,71.79h1.29L155.36,77c.33,1.13.56,2,.92,3.16h.05c.36-1.12.59-2,.92-3.16l1.54-5.17H160l-3,9.56h-1.41Z"></path> <path class="cls-1" d="M161.57,71.79h5.51v1h-4.3v3h3.63v1h-3.63v3.47h4.44v1h-5.65Z"></path> <path class="cls-2" d="M78.11,11.22l9.51,32h.16l10.6-32h5.55l10.77,32h.17l9.42-32h6.06L117.9,50.58h-6.23L101.16,18.7H101L90.64,50.58H84.42L72,11.22Z"></path> <path class="cls-2" d="M168.23,29.72V31c0,.45,0,.93-.08,1.43H135.51A15.14,15.14,0,0,0,136.69,38a13.9,13.9,0,0,0,3,4.55,14.5,14.5,0,0,0,4.54,3.07,15.07,15.07,0,0,0,13.33-.93,15.37,15.37,0,0,0,4.92-4.75l4.29,3.36a21.34,21.34,0,0,1-7.78,6.4,21.77,21.77,0,0,1-9.13,1.93A21,21,0,0,1,141.78,50a19.11,19.11,0,0,1-6.44-4.34,20.56,20.56,0,0,1-4.25-6.56,21.4,21.4,0,0,1-1.55-8.24,22,22,0,0,1,1.51-8.24,20,20,0,0,1,4.21-6.57,19.25,19.25,0,0,1,6.31-4.33,19.67,19.67,0,0,1,7.82-1.55,20.23,20.23,0,0,1,8.16,1.55A16.83,16.83,0,0,1,163.43,16,18.1,18.1,0,0,1,167,22.15,23.15,23.15,0,0,1,168.23,29.72Zm-5.8-1.85a14.18,14.18,0,0,0-3.58-9.21Q155.52,15,149.39,15a13.27,13.27,0,0,0-5.3,1.05,14,14,0,0,0-4.29,2.86,14.22,14.22,0,0,0-3,4.12,13.71,13.71,0,0,0-1.26,4.84Z"></path> <path class="cls-3" d="M218.1,14.37a3.71,3.71,0,0,1-1.26,2.9,3.95,3.95,0,0,1-5.55,0,3.71,3.71,0,0,1-1.26-2.9,3.73,3.73,0,0,1,1.26-2.9,3.95,3.95,0,0,1,5.55,0A3.73,3.73,0,0,1,218.1,14.37Z"></path> <rect class="cls-3" x="211.2" y="27.71" width="5.72" height="39.37"></rect> <path class="cls-3" d="M194.38,32.5V81.4h-5.72V16.94q0-6.72,3.28-10.6T202,2.47a22.16,22.16,0,0,1,2.35.13,12.18,12.18,0,0,1,2.36.46l-1,5c-.62-.17-1.24-.31-1.85-.42a12.1,12.1,0,0,0-2.11-.17,8.08,8.08,0,0,0-3.74.76,5.4,5.4,0,0,0-2.27,2.14,9.39,9.39,0,0,0-1.09,3.24,24.66,24.66,0,0,0-.3,3.95V32.5Z"></path> <rect class="cls-4" x="171.89" y="27.51" width="13.12" height="4.9"></rect> <rect class="cls-3" x="193.79" y="27.51" width="13.77" height="4.9"></rect> </svg> 